<?xml version="1.0" encoding="UTF-8" standalone="no"?>
<!-- Created with Inkscape (http://www.inkscape.org/) -->

<svg
   width="109.3906mm"
   height="57.377357mm"
   viewBox="0 0 109.3906 57.377357"
   version="1.1"
   id="svg1006"
   sodipodi:docname="edgecut.svg"
   inkscape:version="1.1.2 (0a00cf5339, 2022-02-04)"
   xmlns:inkscape="http://www.inkscape.org/namespaces/inkscape"
   xmlns:sodipodi="http://sodipodi.sourceforge.net/DTD/sodipodi-0.dtd"
   xmlns="http://www.w3.org/2000/svg"
   xmlns:svg="http://www.w3.org/2000/svg">
  <sodipodi:namedview
     id="namedview1008"
     pagecolor="#ffffff"
     bordercolor="#666666"
     borderopacity="1.0"
     inkscape:pageshadow="2"
     inkscape:pageopacity="0.0"
     inkscape:pagecheckerboard="0"
     inkscape:document-units="mm"
     showgrid="false"
     fit-margin-top="0"
     fit-margin-left="0"
     fit-margin-right="0"
     fit-margin-bottom="0"
     inkscape:zoom="2.5941639"
     inkscape:cx="279.85896"
     inkscape:cy="133.18357"
     inkscape:window-width="1920"
     inkscape:window-height="1090"
     inkscape:window-x="0"
     inkscape:window-y="27"
     inkscape:window-maximized="1"
     inkscape:current-layer="layer1" />
  <defs
     id="defs1003" />
  <g
     inkscape:label="Layer 1"
     inkscape:groupmode="layer"
     id="layer1"
     transform="translate(-44.425002,-56.452243)">
    <path
       style="font-size:8.46667px;line-height:1.25;font-family:'El&amp;Font Bubble';-inkscape-font-specification:'El&amp;Font Bubble';letter-spacing:0px;word-spacing:0px;display:inline;opacity:0.98;fill:none;fill-opacity:0.960784;stroke:#000000;stroke-width:0.11;stroke-linecap:square;stroke-miterlimit:4;stroke-dasharray:none;stroke-opacity:0.960784"
       d="m 55.843402,62.31301 c -4.426244,0.10417 -9.413409,1.582399 -10.70684,6.399764 -1.515832,4.07659 -0.525142,7.175091 1.941584,10.262294 -2.079975,4.216356 -4.255232,9.804956 -0.733649,14.161684 2.882284,1.569815 5.501865,4.274305 1.797466,6.67438 -1.64903,3.449358 2.209274,5.946248 4.315791,6.557148 1.173416,4.6138 5.552677,7.929 10.30166,7.48396 h 38.526776 l 35.67081,-1.35836 c 3.98643,-0.15181 8.09362,-1.64424 11.09616,-4.48412 3.77966,-3.96795 3.08255,-9.909892 5.37184,-14.490493 V 71.001386 c 0,-5.961828 -6.47171,-9.851267 -11.95892,-10.963469 -4.22572,0.330078 -7.51847,-3.420564 -11.60954,-3.585674 H 73.685442 c -8.096154,1.330025 -12.369786,5.686581 -17.84204,5.860767 z"
       id="path5158"
       sodipodi:nodetypes="ccscccccsccscccc" />
  </g>
</svg>
