<?xml version="1.0" encoding="UTF-8" standalone="no"?>
<!-- Created with Inkscape (http://www.inkscape.org/) -->

<svg
   width="112.00001mm"
   height="53.108047mm"
   viewBox="0 0 112.00001 53.108047"
   version="1.1"
   id="svg1"
   xmlns="http://www.w3.org/2000/svg"
   xmlns:svg="http://www.w3.org/2000/svg">
  <defs
     id="defs1" />
  <g
     id="layer2"
     transform="translate(-49.133064,-121.94613)">
    <path
       style="fill:none;stroke:#000000;stroke-width:0.0999994;stroke-dasharray:none"
       d="m 49.224146,146.5489 c 0.126563,-2.32033 0.42313,-7.88518 2.056312,-11.37511 1.495212,-3.19508 3.869563,-6.13867 6.78978,-8.11771 2.834712,-1.92109 6.39651,-2.56609 9.761305,-3.20197 C 78.568694,121.82499 100.56067,122 100.56067,122 h 42.72273 c 9.69286,1.2643 10.60433,2.77359 13.719,6.82085 3.82788,4.97403 3.3004,12.18717 3.78545,18.44482 0.34814,4.49135 0.63279,9.17912 -0.64441,13.49911 -1.1293,3.81976 -2.93024,7.80358 -6.01218,10.32698 -3.12695,2.56024 -7.3455,3.49097 -11.4755,3.9124 -14.51043,-0.0989 -6.01048,-0.14106 -20.52051,-0.13743 -14.51001,0.004 -52.029992,0.0531 -66.540106,0.13743 0,0 -3.936636,-0.53598 -5.164065,-2.91353 -1.22743,-2.37754 -1.333496,-23.22139 -1.206933,-25.54173 z"
       id="path4" />
  </g>
</svg>
