<?xml version="1.0" encoding="UTF-8" standalone="no"?>
<!-- Created with Inkscape (http://www.inkscape.org/) -->

<svg
   width="109.3906mm"
   height="57.377357mm"
   viewBox="0 0 109.3906 57.377357"
   version="1.1"
   id="svg1006"
   sodipodi:docname="outline.svg"
   inkscape:version="1.1.2 (0a00cf5339, 2022-02-04)"
   xmlns:inkscape="http://www.inkscape.org/namespaces/inkscape"
   xmlns:sodipodi="http://sodipodi.sourceforge.net/DTD/sodipodi-0.dtd"
   xmlns="http://www.w3.org/2000/svg"
   xmlns:svg="http://www.w3.org/2000/svg">
  <sodipodi:namedview
     id="namedview1008"
     pagecolor="#ffffff"
     bordercolor="#666666"
     borderopacity="1.0"
     inkscape:pageshadow="2"
     inkscape:pageopacity="0.0"
     inkscape:pagecheckerboard="0"
     inkscape:document-units="mm"
     showgrid="false"
     fit-margin-top="0"
     fit-margin-left="0"
     fit-margin-right="0"
     fit-margin-bottom="0"
     inkscape:zoom="0.64854097"
     inkscape:cx="228.20455"
     inkscape:cy="347.70356"
     inkscape:window-width="1920"
     inkscape:window-height="1090"
     inkscape:window-x="0"
     inkscape:window-y="27"
     inkscape:window-maximized="1"
     inkscape:current-layer="layer1" />
  <defs
     id="defs1003" />
  <g
     inkscape:label="Layer 1"
     inkscape:groupmode="layer"
     id="layer1"
     transform="translate(-44.425002,-56.452243)">
    <path
       style="font-size:8.46667px;line-height:1.25;font-family:'El&amp;Font Bubble';-inkscape-font-specification:'El&amp;Font Bubble';letter-spacing:0px;word-spacing:0px;display:inline;opacity:0.98;fill:none;fill-opacity:0.960784;stroke:#000000;stroke-width:0.11;stroke-linecap:square;stroke-miterlimit:4;stroke-dasharray:none;stroke-opacity:0.960784"
       d="m 70.764875,57.319446 c -5.175587,0.850226 -9.449219,4.819378 -14.921473,4.993564 -4.426244,0.10417 -8.355076,1.582399 -9.648507,6.399764 -1.515832,4.07659 -1.583475,7.175091 0.883251,10.262294 -2.079975,4.216356 -4.255232,9.804956 -0.733649,14.161684 2.882284,1.569815 5.501865,4.274305 1.797466,6.67438 -1.64903,3.449358 2.209274,5.946248 4.315791,6.557148 1.173416,4.6138 5.552677,7.81004 10.30166,7.365 12.820238,-1.06044 25.715892,0.44504 38.526776,-0.17076 11.71789,-2.83625 24.02915,1.37615 35.67081,-1.06864 3.90414,-0.8199 8.09362,-1.64424 11.09616,-4.48412 3.77966,-3.96795 1.85976,-9.909892 4.14905,-14.490493 1.08012,-7.449981 1.41098,-15.009479 1.5583,-22.517881 -1.0147,-5.874843 -6.80722,-9.851267 -12.29443,-10.963469 -4.22572,0.330078 -7.51847,-2.897563 -11.60954,-3.062673 -8.54161,-0.776008 -17.0655,0.199662 -25.59863,0.253441 -11.164157,0.0726 -22.476314,-1.719063 -33.493035,0.09075 z"
       id="path5158"
       sodipodi:nodetypes="accsccccsaccsccaa" />
  </g>
</svg>
