<?xml version="1.0" encoding="UTF-8" standalone="no"?>
<!-- Created with Inkscape (http://www.inkscape.org/) -->

<svg
   width="102.5255mm"
   height="52.805656mm"
   viewBox="0 0 102.5255 52.805656"
   version="1.1"
   id="svg1144"
   inkscape:version="1.1.2 (0a00cf5339, 2022-02-04)"
   sodipodi:docname="silk.svg"
   inkscape:export-filename="/home/christian/archiv/clients/njit/classes/ECET430/430Badge/graphics/silk.png"
   inkscape:export-xdpi="1200"
   inkscape:export-ydpi="1200"
   xmlns:inkscape="http://www.inkscape.org/namespaces/inkscape"
   xmlns:sodipodi="http://sodipodi.sourceforge.net/DTD/sodipodi-0.dtd"
   xmlns="http://www.w3.org/2000/svg"
   xmlns:svg="http://www.w3.org/2000/svg">
  <sodipodi:namedview
     id="namedview1146"
     pagecolor="#000000"
     bordercolor="#666666"
     borderopacity="1.0"
     inkscape:pageshadow="2"
     inkscape:pageopacity="1"
     inkscape:pagecheckerboard="0"
     inkscape:document-units="mm"
     showgrid="false"
     fit-margin-top="0"
     fit-margin-left="0"
     fit-margin-right="0"
     fit-margin-bottom="0"
     inkscape:zoom="0.64854097"
     inkscape:cx="630.64636"
     inkscape:cy="253.64627"
     inkscape:window-width="1920"
     inkscape:window-height="1090"
     inkscape:window-x="0"
     inkscape:window-y="27"
     inkscape:window-maximized="1"
     inkscape:current-layer="layer1" />
  <defs
     id="defs1141" />
  <g
     inkscape:label="Layer 1"
     inkscape:groupmode="layer"
     id="layer1"
     transform="translate(62.105491,-81.252799)">
    <g
       id="g1119"
       style="display:inline"
       transform="matrix(1.0999943,0,0,1.0999943,-125.21587,-165.56214)">
      <path
         d="m 80.69355,224.42892 q 5.45742,0 6.569116,2.6276 0.378976,1.3644 0.378976,2.93085 0,0.73271 -0.682176,2.42555 0.960099,0.30313 1.743342,1.66753 0.227411,0.55554 0.227411,0.96006 0,1.18754 -0.833774,2.42555 l -0.07578,0.22735 q 1.667547,1.3138 1.667547,3.4614 -0.151627,0.8338 -0.833773,1.66753 v 0.0758 q 1.389624,0.2524 2.678182,2.50133 0.45476,0.96012 0.45476,1.23802 h -0.07578 l 0.151628,0.55615 -0.07578,0.0758 0.07578,0.32819 v 0.0758 q 0,1.03591 -0.151628,1.03591 l 0.07578,0.0758 v 0.0758 q -0.480061,2.17283 -2.147596,4.37097 -0.101085,0.30314 -1.364354,1.23802 0.45476,0.4547 0.45476,1.61699 h 0.07578 v -0.15157 h 0.151628 l -0.07578,0.35386 0.07578,0.0758 v 0.0489 q -0.151628,0 -0.227411,0.55554 -1.364359,2.14759 -2.804508,2.14759 l -0.07578,0.0758 0.378977,2.02127 h -0.07578 l 0.07578,0.0758 v 0.0489 l -0.07578,0.22735 0.07578,0.32819 v 0.75796 q 0,1.13699 -0.45476,2.50133 l 0.07578,0.0758 q -0.45476,1.99603 -3.436149,5.07845 -2.425525,1.23802 -6.038536,1.92019 l -0.07578,-0.0758 h -0.07578 l -2.577116,0.22735 -0.530605,-0.0758 -0.07578,0.0758 -0.378977,-0.0758 h -1.08643 l -0.151628,-0.15156 -0.07578,0.0758 H 71.39577 l -0.07578,-0.0758 -0.07578,0.0758 q -2.021265,-0.22735 -3.739342,-1.44013 -2.804508,-3.10772 -3.107696,-5.28055 l -0.07578,0.0758 h -0.378977 q -2.046536,0 -3.132967,-2.37501 l -0.151566,-0.60626 q 0,-2.65296 2.501314,-3.76465 l -0.07578,-0.47976 v -0.47976 l 0.151566,-0.48036 h -0.07578 q -1.642276,-0.30314 -3.335088,-1.94549 -2.046536,-2.70344 -2.046536,-5.12899 v -1.54121 l 0.07578,-0.0758 -0.07578,-0.0489 q 0.682176,-3.41085 1.41489,-4.59838 l 0.631646,-1.23802 q 0.126326,0 0.530604,-0.90958 0.151628,0 0.151628,-0.35386 h -0.07578 q -1.743343,0 -2.652918,-1.44019 -0.404279,-0.70741 -0.404279,-2.14759 0,-1.86965 2.526586,-3.81513 0.555845,-0.42965 2.501321,-0.42965 -0.227411,-0.15156 -0.303194,-1.31379 0.859039,-2.27393 2.071801,-3.13296 1.035901,-0.60627 2.501315,-0.60627 1.313823,0.20229 2.223392,1.08639 l 0.227411,0.22735 q 1.263287,-1.3138 2.04653,-1.86965 2.855038,-2.14759 4.269928,-2.50133 3.486685,-1.11169 4.648912,-1.11169 v 0.0489 z m -20.86958,25.11423 v 0.35386 l -0.07578,0.0758 0.07578,0.0758 v 0.12651 q 0,2.42549 2.122331,4.64893 0.505303,0.55615 2.829774,1.11169 l 1.440149,0.15157 q 1.591745,0 4.952105,-0.98537 h 0.303193 q 0.757979,0 1.313824,0.63169 0,0.7832 -0.859039,1.16217 l -2.652912,1.81917 q -3.057165,2.6529 -3.057165,4.72471 v 0.60627 q 0.22741,0 0.22741,0.15156 l -0.151566,0.12651 0.07578,0.0758 -0.07578,0.48037 q 0,1.01061 1.288552,3.13296 1.591752,1.94543 2.299194,1.94543 0.631646,0.47976 2.652911,0.47976 h 1.692812 q 3.385625,0 6.392254,-1.3138 1.490685,-0.8085 2.602381,-2.77929 0.682183,-0.65687 1.136968,-3.25929 l 0.07578,-0.42964 -0.07578,-0.0489 v -0.27808 q 0,-3.6888 -2.122332,-6.46803 l -0.606387,-1.31386 q 0,-0.83373 1.288558,-0.96006 l 0.45476,0.12651 0.757978,-0.12651 0.378977,0.0489 0.303193,-0.12651 0.07578,0.0758 h 0.07578 q 1.313823,0 2.753978,-1.06121 2.299193,-2.85501 2.299193,-4.64887 v -0.27807 q 0,-1.86965 -1.844409,-3.03188 l -1.667541,-0.27808 q -2.678182,0 -3.739348,0.68217 -1.288558,0 -1.288558,-1.46542 1.743342,-2.72868 1.743342,-4.01724 0.227411,-0.70747 0.227411,-1.51597 v -0.0758 q 0,-1.3391 -1.667541,-1.74332 -0.960105,-0.20229 -2.450791,-0.20229 -2.198127,0 -5.937469,1.79386 -1.667541,1.28855 -2.753972,3.33513 -0.757978,1.79386 -0.757978,2.85501 0,1.74337 1.667547,3.73934 -0.176868,1.11169 -1.136967,1.11169 l -0.45476,-0.0758 -2.602382,0.0758 q -1.364353,0 -1.364353,-0.75795 h -0.07578 v -0.0758 q 0,-0.96013 1.212756,-0.96013 l 0.606388,0.12651 h 0.859039 l 0.07578,-0.0758 h 0.07578 q -0.859039,-1.61699 -0.859039,-2.82977 l 0.07578,-0.0758 v -0.0758 l -0.07578,-0.2023 q 0.151628,-1.44012 0.480062,-2.02127 l -0.07578,-0.0489 v -0.0758 l 0.985364,-2.07182 1.819144,-2.29916 q 2.349718,-1.74338 4.421519,-2.1476 0,-0.17662 2.223392,-0.70747 l 0.833774,-0.12651 h 1.970735 l 0.303193,0.0758 0.07578,-0.0758 1.61701,0.20229 q 1.94547,-1.11175 2.804509,-3.73934 l 0.252651,-1.11169 -0.101085,-0.2023 0.101085,-0.22735 q 0,-2.19813 -1.692806,-2.77928 -1.869674,-0.32819 -3.057172,-0.32819 -2.299188,0 -5.634276,1.3138 -3.739348,1.92024 -6.619652,6.24068 l -1.313823,1.66753 q -2.122332,2.55188 -2.122332,2.85507 -2.728707,3.38561 -4.573116,7.4787 -0.757972,2.02121 -0.757972,3.81513 z m 0.303194,-19.27783 h 0.303193 q 1.288552,0.25241 1.288552,0.83374 v 0.3288 q -0.303194,1.26326 -0.909569,1.26326 l -0.378977,0.20229 h -0.682182 q -0.859039,0 -0.859039,-1.18748 0.202109,-1.38964 1.162232,-1.38964 z m 27.3629,20.66741 0.303194,0.20229 q 0,0.15157 -0.530605,0.22735 l -0.07578,-0.0758 v -0.0758 q 0.227411,0 0.227411,-0.27808 z m 0.606387,8.13563 q 1.440149,0.35386 1.440149,1.11169 v 0.27807 q -0.581085,1.59169 -1.667541,1.59169 h -0.378977 q -0.985364,-0.55554 -0.985364,-1.3138 0.328434,-1.66753 0.985364,-1.66753 z m -19.277834,3.73935 h 0.303194 l 0.07578,0.35385 v 0.0489 l -0.227411,1.06121 q 0.176869,0.80849 0.985365,1.86964 0.252651,0.58121 1.743342,1.44018 0,0.63163 -0.530604,0.70742 l 0.07578,0.0758 v 0.27807 l -0.378977,0.48037 q -1.136967,0 -2.273928,-1.31386 -0.783244,-1.92018 -0.783244,-2.85501 v -0.35385 q 0,-1.26332 0.631647,-1.59176 z m 3.890939,4.64893 h 0.07578 q 0.328434,0.10084 0.757978,0.63162 -0.656912,1.51597 -1.086431,1.66754 -0.252651,0 -0.757978,-0.27808 l 0.07578,-0.27807 -0.07578,-0.27808 q 0,-0.88428 1.010635,-1.46536 z"
         id="path11404"
         style="font-size:8.46667px;line-height:1.25;font-family:'El&amp;Font Bubble';-inkscape-font-specification:'El&amp;Font Bubble';letter-spacing:0px;word-spacing:0px;opacity:0.98;fill:#ffffff;stroke-width:7.33385;stroke-linecap:square;stroke-opacity:0.960784" />
      <path
         d="m 106.84369,224.37838 v 0.0758 l 0.0758,-0.0758 h 1.0359 q 2.17286,0 3.58775,0.83373 1.69281,0.42964 3.63828,2.24868 l 0.35373,0.50543 1.1117,-0.22735 q 1.08643,0.22735 1.54122,0.75801 1.41489,2.6529 1.41489,3.89092 h -0.0758 l 0.0758,0.0758 v 0.68223 q 0,0.58121 -0.63165,1.71808 l -0.0758,0.53048 h 0.0758 q 1.38962,0 1.74334,2.1729 l -0.0758,0.37892 0.0758,0.20229 q -0.73271,2.40025 -1.61701,2.40025 h -0.55585 l 0.20211,1.36434 -0.0507,0.27807 q 1.31383,0.48037 1.74335,1.51597 0.70744,1.54121 0.70744,3.13296 l -0.27795,1.13693 0.96011,2.24869 q 0.98536,2.67814 0.98536,3.89091 h -0.0758 l 0.15162,0.73271 -0.27795,1.44019 0.0758,0.22735 q -0.78324,2.50133 -1.69281,4.47206 0.70744,0 1.61701,2.09705 0.27796,1.06121 0.27796,1.66754 -0.55585,2.45079 -1.81915,3.36037 -1.59174,0.8338 -2.65291,0.8338 h -0.15163 q -1.89493,0 -2.32445,-0.98536 v -0.0758 q -1.16223,1.11169 -2.02127,1.49067 -1.56648,1.13693 -4.54785,2.09705 0,0.17663 -3.23402,0.75796 -0.70745,0 -1.1875,0.15156 l -0.0758,-0.0758 -0.35374,0.0758 h -1.66755 l -0.0758,-0.0758 -0.0758,0.0758 q -1.36436,0 -5.583755,-1.56651 l -2.678176,-1.64223 q -0.353736,0.65687 -0.833774,0.65687 -2.450784,-0.90958 -2.450784,-2.62766 0,-0.70741 0.480062,-1.56645 -0.833774,-2.02127 -0.833774,-4.72471 0.277953,-3.91622 0.985371,-4.39628 l 0.202108,-0.53048 q -0.808508,-0.85904 -0.98537,-1.71808 l 0.07578,-0.4547 -0.07578,-0.0758 v -0.0758 q 0.732707,-2.70344 3.360353,-2.70344 l 0.303194,-1.3391 h -0.227411 l -0.353736,-0.0758 q -0.480062,0.90958 -1.313823,0.90958 h -0.859039 q -1.591745,-0.48037 -1.591745,-1.74338 v -0.30313 q 0,-0.93482 0.429519,-1.41489 -1.490685,-2.80452 -1.490685,-4.92682 l 0.07578,-0.22735 -0.07578,-0.0758 v -0.0758 l 0.07578,-0.0758 -0.07578,-0.37891 v -0.37892 l 0.07578,-0.0758 -0.07578,-0.0758 v -0.0758 l 0.07578,-0.22735 -0.07578,-0.88434 0.07578,-0.30313 -0.07578,-0.0758 q 0.682177,-2.98134 1.617011,-5.10369 -0.277892,-0.25241 -0.353737,-0.88428 l 0.227411,-0.8338 -0.07578,-0.0758 v -0.0758 q 0.707448,-3.38561 1.869674,-4.34567 1.212763,-1.71808 3.714077,-1.71808 0.909569,0.4547 1.692813,0.60627 l 2.172856,-0.8338 q 2.90557,-0.96013 3.63828,-0.96013 l 2.17287,-0.45469 v 0.0758 z m -15.690085,15.71534 0.07578,0.0758 v 0.0758 l -0.07578,0.0758 0.07578,0.37892 v 0.53048 l -0.07578,0.60627 q 0,2.12235 1.389618,4.85103 1.010636,1.21278 1.617017,1.21278 h 1.541216 l 0.277953,-0.0758 0.07578,0.0758 h 0.07578 q 2.981364,-0.40397 4.396251,-1.28856 0,-0.15157 0.98536,-1.11169 2.09707,-2.82977 2.09707,-5.53321 l -0.12633,-0.4547 q 0,-0.27807 0.42952,-0.60626 h 0.32844 v -0.0758 l -0.0507,-0.53048 h 0.12633 q 0,0.58121 0.90957,1.13693 0.22741,0.27808 0.22741,1.03591 v 1.13693 q -0.35374,1.81916 -1.06116,3.05718 -0.12633,0 -0.55585,1.06121 -1.79387,2.37494 -3.71407,3.13296 l -0.353737,0.0758 v 0.22735 q 0,0.35386 -0.555845,1.13693 l 0.202109,0.88428 q 0.985363,0.55615 0.985363,1.21278 3.78988,0.93482 5.25529,2.6782 1.74334,1.41488 3.28456,3.73935 0.15157,0 0.27796,0.60626 l -0.40428,0.15157 q 0,0.37891 -0.22741,0.37891 h -0.63165 l -0.20211,-0.15156 -0.0758,0.0758 -1.94547,-2.62766 q -2.82977,-2.85501 -4.2194,-2.90555 -0.75797,-0.37892 -1.819132,-0.60626 l -1.263293,0.0758 q -0.151628,0.17662 -1.541216,0.53048 -1.920204,0.60627 -2.450784,1.56645 -1.035901,1.08645 -1.46542,2.62766 l -0.202109,1.64229 0.05073,0.0758 -0.05073,0.37891 q 0,4.77526 2.223392,6.64496 0.277953,0.42964 1.692813,1.36434 0.960105,0.68217 3.991999,1.56645 l 1.61701,0.30314 0.0758,-0.0758 1.0359,0.15157 q 3.66354,0 6.51858,-1.3391 0.50531,0 2.65291,-1.13699 3.23403,-2.24862 5.68482,-6.21538 2.17286,-3.84044 2.52658,-6.44279 l 0.12633,-0.75796 q 0,-0.4547 -0.40428,-1.56651 0,-0.15156 0.20211,-0.15156 -0.20211,-1.92025 -2.02127,-5.07845 -1.13696,-1.08645 -1.89494,-1.21278 -0.75797,-0.65693 -2.45079,-0.65693 -1.49068,0 -3.86567,1.86971 0,0.15156 -1.38962,0.88428 l -1.18749,1.0612 q 0,0.15157 -0.78324,0.4547 -0.58109,0.65693 -0.75798,0.65693 -0.9601,0 -1.54121,-0.80849 0,-1.11175 1.38962,-1.59175 l 2.60238,-2.09712 q 0,-0.20229 1.26329,-1.41488 0,-0.15157 1.1117,-1.56645 l 0.83377,-1.36434 q 1.33909,-1.89495 2.8803,-7.02394 0.35374,-1.94543 0.35374,-2.93085 0,-1.2885 -1.06117,-3.28453 -2.37498,-2.85507 -6.51858,-2.85507 -3.63828,0 -8.691445,2.09712 l -1.945469,1.28855 q -2.627647,1.92019 -3.714078,4.04248 -1.010635,1.84447 -1.339088,2.9814 -0.581085,1.08645 -0.833773,3.66356 z m 1.970735,-2.14759 0.05072,0.0489 0.227411,0.0758 q 0,0.27808 0.202109,0.4547 l -0.07578,0.22735 0.07578,0.30313 q -0.480062,2.42549 -0.480062,3.36037 0,0.50543 1.819138,2.17284 0.328434,0.0489 0.328434,0.37892 0.303194,0 0.303194,0.60626 l 0.631646,-0.4547 q 0.176869,0.0489 0.555845,0.53049 v 0.22735 q 0,0.45469 -0.985364,1.41488 h -0.429519 l -0.404279,-0.4547 v -0.0758 l 0.277892,-0.8085 h -0.227411 q 0,0.22735 -0.480061,0.50543 h -0.07578 l -0.07578,-0.0758 -0.05073,0.0758 q -2.122331,-0.50543 -2.122331,-3.9667 0.202109,-4.3205 0.93484,-4.54785 z m 2.501314,19.30307 h 0.07578 v 0.0758 q -0.151627,0.53048 -0.277953,0.53048 l -0.07578,-0.22735 q 0.151628,-0.32819 0.277953,-0.37891 z"
         id="path11406"
         style="font-size:8.46667px;line-height:1.25;font-family:'El&amp;Font Bubble';-inkscape-font-specification:'El&amp;Font Bubble';letter-spacing:0px;word-spacing:0px;opacity:0.98;fill:#ffffff;stroke-width:7.33385;stroke-linecap:square;stroke-opacity:0.960784" />
      <path
         d="m 132.56431,224.60573 q 1.74334,0 3.63828,1.8697 h 1.64228 q 5.53321,0 10.91484,5.45743 1.81914,2.77922 1.81914,5.28055 -1.01063,19.53048 -1.81914,19.53048 -0.45476,1.97073 -0.98537,2.82977 l 0.15163,0.93482 v 1.13699 q -0.48007,3.68881 -1.49069,4.87628 -2.45078,2.82977 -3.78987,2.82977 h -0.65691 l -1.16224,-0.17662 q 0,1.08638 -5.60901,2.22338 h -2.98137 q -5.78587,0 -9.60101,-5.98803 -1.97074,-3.68881 -1.97074,-8.08509 0,-11.09166 3.46142,-19.17674 -0.42952,-2.34971 -0.98537,-3.00664 l 0.17687,-0.93482 -0.17687,-0.75801 q 0,-3.58772 3.81515,-7.1502 4.47205,-1.69284 5.60901,-1.69284 z m -9.42416,31.96129 q 0,7.57979 4.80051,10.53588 1.74334,1.3138 3.63828,1.3138 h 3.63828 q 2.77924,-0.20229 6.11433,-3.38561 4.72471,-6.29117 5.28056,-10.91486 0.50531,-2.3497 0.83378,-9.39888 l -0.17687,-1.3138 q 0.5053,-2.75398 0.5053,-5.45742 0,-7.02394 -10.40952,-9.01991 -5.23003,1.46543 -7.60502,4.52254 -6.61965,8.89358 -6.61965,23.11826 z m 10.58639,-14.09835 h 0.65691 q 1.81914,0 1.81914,2.07181 l 1.31382,-1.51597 1.66755,1.31386 v 0.37892 q 0,0.78326 -1.81915,3.20874 v 0.17663 l 0.80851,4.5226 q 0,1.3138 -1.64227,1.3138 -1.31383,-0.55554 -1.31383,-2.82977 -2.12233,3.00664 -3.15823,3.00664 h -0.65691 l -0.48006,-0.55554 v -0.55554 q 0,-1.01061 3.46142,-5.28056 l -0.98537,-3.94146 v -0.93482 z m -9.0957,14.09835 h 0.83377 q 0.42952,0 0.98536,3.00664 2.2992,3.94146 3.96674,3.94146 l 0.32843,0.75801 0.17687,-0.17662 h 0.32844 q 1.13696,0 1.13696,1.11169 -1.18749,1.56645 -1.64228,1.69277 h -0.32843 l -0.50531,-0.55554 v -0.55553 l 0.17687,-0.2023 v -0.17662 l -0.17687,-0.20229 h -0.15162 q -0.32844,0 -0.32844,0.58121 l -0.17687,0.17662 h -1.49068 q -3.13296,-2.75399 -3.13296,-6.77123 -0.40428,0 -0.5053,-1.49066 0.17686,-1.13699 0.5053,-1.13699 z"
         id="path11408"
         style="font-size:8.46667px;line-height:1.25;font-family:'El&amp;Font Bubble';-inkscape-font-specification:'El&amp;Font Bubble';letter-spacing:0px;word-spacing:0px;opacity:0.98;fill:#ffffff;stroke-width:7.33385;stroke-linecap:square;stroke-opacity:0.960784" />
    </g>
  </g>
</svg>
