%TF.GenerationSoftware,KiCad,Pcbnew,8.0.5-8.0.5-0~ubuntu22.04.1*%
%TF.CreationDate,2024-10-22T12:45:21-04:00*%
%TF.ProjectId,Badge,42616467-652e-46b6-9963-61645f706362,1.0*%
%TF.SameCoordinates,Original*%
%TF.FileFunction,Copper,L1,Top*%
%TF.FilePolarity,Positive*%
%FSLAX46Y46*%
G04 Gerber Fmt 4.6, Leading zero omitted, Abs format (unit mm)*
G04 Created by KiCad (PCBNEW 8.0.5-8.0.5-0~ubuntu22.04.1) date 2024-10-22 12:45:21*
%MOMM*%
%LPD*%
G01*
G04 APERTURE LIST*
G04 Aperture macros list*
%AMRoundRect*
0 Rectangle with rounded corners*
0 $1 Rounding radius*
0 $2 $3 $4 $5 $6 $7 $8 $9 X,Y pos of 4 corners*
0 Add a 4 corners polygon primitive as box body*
4,1,4,$2,$3,$4,$5,$6,$7,$8,$9,$2,$3,0*
0 Add four circle primitives for the rounded corners*
1,1,$1+$1,$2,$3*
1,1,$1+$1,$4,$5*
1,1,$1+$1,$6,$7*
1,1,$1+$1,$8,$9*
0 Add four rect primitives between the rounded corners*
20,1,$1+$1,$2,$3,$4,$5,0*
20,1,$1+$1,$4,$5,$6,$7,0*
20,1,$1+$1,$6,$7,$8,$9,0*
20,1,$1+$1,$8,$9,$2,$3,0*%
%AMFreePoly0*
4,1,19,0.550000,-0.750000,0.000000,-0.750000,0.000000,-0.744911,-0.071157,-0.744911,-0.207708,-0.704816,-0.327430,-0.627875,-0.420627,-0.520320,-0.479746,-0.390866,-0.500000,-0.250000,-0.500000,0.250000,-0.479746,0.390866,-0.420627,0.520320,-0.327430,0.627875,-0.207708,0.704816,-0.071157,0.744911,0.000000,0.744911,0.000000,0.750000,0.550000,0.750000,0.550000,-0.750000,0.550000,-0.750000,
$1*%
%AMFreePoly1*
4,1,19,0.000000,0.744911,0.071157,0.744911,0.207708,0.704816,0.327430,0.627875,0.420627,0.520320,0.479746,0.390866,0.500000,0.250000,0.500000,-0.250000,0.479746,-0.390866,0.420627,-0.520320,0.327430,-0.627875,0.207708,-0.704816,0.071157,-0.744911,0.000000,-0.744911,0.000000,-0.750000,-0.550000,-0.750000,-0.550000,0.750000,0.000000,0.750000,0.000000,0.744911,0.000000,0.744911,
$1*%
G04 Aperture macros list end*
%TA.AperFunction,EtchedComponent*%
%ADD10C,0.000000*%
%TD*%
%TA.AperFunction,SMDPad,CuDef*%
%ADD11RoundRect,0.250000X0.350000X0.450000X-0.350000X0.450000X-0.350000X-0.450000X0.350000X-0.450000X0*%
%TD*%
%TA.AperFunction,ComponentPad*%
%ADD12R,1.600000X1.600000*%
%TD*%
%TA.AperFunction,ComponentPad*%
%ADD13O,1.600000X1.600000*%
%TD*%
%TA.AperFunction,SMDPad,CuDef*%
%ADD14RoundRect,0.250000X0.325000X0.450000X-0.325000X0.450000X-0.325000X-0.450000X0.325000X-0.450000X0*%
%TD*%
%TA.AperFunction,SMDPad,CuDef*%
%ADD15RoundRect,0.250000X-0.325000X-0.450000X0.325000X-0.450000X0.325000X0.450000X-0.325000X0.450000X0*%
%TD*%
%TA.AperFunction,SMDPad,CuDef*%
%ADD16RoundRect,0.250000X-0.350000X-0.450000X0.350000X-0.450000X0.350000X0.450000X-0.350000X0.450000X0*%
%TD*%
%TA.AperFunction,SMDPad,CuDef*%
%ADD17RoundRect,0.250000X-0.475000X0.337500X-0.475000X-0.337500X0.475000X-0.337500X0.475000X0.337500X0*%
%TD*%
%TA.AperFunction,SMDPad,CuDef*%
%ADD18FreePoly0,0.000000*%
%TD*%
%TA.AperFunction,SMDPad,CuDef*%
%ADD19R,1.000000X1.500000*%
%TD*%
%TA.AperFunction,SMDPad,CuDef*%
%ADD20FreePoly1,0.000000*%
%TD*%
%TA.AperFunction,ComponentPad*%
%ADD21R,3.000000X3.000000*%
%TD*%
%TA.AperFunction,ComponentPad*%
%ADD22C,3.000000*%
%TD*%
%TA.AperFunction,SMDPad,CuDef*%
%ADD23RoundRect,0.150000X0.825000X0.150000X-0.825000X0.150000X-0.825000X-0.150000X0.825000X-0.150000X0*%
%TD*%
%TA.AperFunction,SMDPad,CuDef*%
%ADD24RoundRect,0.250000X-0.337500X-0.475000X0.337500X-0.475000X0.337500X0.475000X-0.337500X0.475000X0*%
%TD*%
%TA.AperFunction,SMDPad,CuDef*%
%ADD25RoundRect,0.250000X0.450000X-0.350000X0.450000X0.350000X-0.450000X0.350000X-0.450000X-0.350000X0*%
%TD*%
%TA.AperFunction,SMDPad,CuDef*%
%ADD26RoundRect,0.250000X0.450000X-0.325000X0.450000X0.325000X-0.450000X0.325000X-0.450000X-0.325000X0*%
%TD*%
%TA.AperFunction,ViaPad*%
%ADD27C,0.600000*%
%TD*%
%TA.AperFunction,Conductor*%
%ADD28C,0.750000*%
%TD*%
%TA.AperFunction,Conductor*%
%ADD29C,0.200000*%
%TD*%
G04 APERTURE END LIST*
D10*
%TA.AperFunction,EtchedComponent*%
%TO.C,JP1*%
G36*
X111360000Y-33320000D02*
G01*
X110860000Y-33320000D01*
X110860000Y-32720000D01*
X111360000Y-32720000D01*
X111360000Y-33320000D01*
G37*
%TD.AperFunction*%
%TA.AperFunction,EtchedComponent*%
%TO.C,JP2*%
G36*
X77070000Y-33320000D02*
G01*
X76570000Y-33320000D01*
X76570000Y-32720000D01*
X77070000Y-32720000D01*
X77070000Y-33320000D01*
G37*
%TD.AperFunction*%
%TD*%
D11*
%TO.P,R10,1*%
%TO.N,VCC*%
X88630000Y-67818000D03*
%TO.P,R10,2*%
%TO.N,Net-(U1-DIS)*%
X86630000Y-67818000D03*
%TD*%
D12*
%TO.P,SW1,1,A*%
%TO.N,/BAT*%
X74930000Y-74972500D03*
D13*
%TO.P,SW1,2,B*%
%TO.N,VCC*%
X74930000Y-82592500D03*
%TD*%
D14*
%TO.P,D5,1,K*%
%TO.N,Net-(D5-K)*%
X69605000Y-59690000D03*
%TO.P,D5,2,A*%
%TO.N,/PULSE2H*%
X67555000Y-59690000D03*
%TD*%
D15*
%TO.P,D7,1,K*%
%TO.N,Net-(D7-K)*%
X54855000Y-62230000D03*
%TO.P,D7,2,A*%
%TO.N,/PULSE2H*%
X56905000Y-62230000D03*
%TD*%
D11*
%TO.P,R4,1*%
%TO.N,Net-(D4-K)*%
X105140000Y-63500000D03*
%TO.P,R4,2*%
%TO.N,/PULSE*%
X103140000Y-63500000D03*
%TD*%
D14*
%TO.P,D8,1,K*%
%TO.N,Net-(D8-K)*%
X131835000Y-40640000D03*
%TO.P,D8,2,A*%
%TO.N,/PULSE2H*%
X129785000Y-40640000D03*
%TD*%
%TO.P,D4,1,K*%
%TO.N,Net-(D4-K)*%
X105165000Y-60960000D03*
%TO.P,D4,2,A*%
%TO.N,VCC*%
X103115000Y-60960000D03*
%TD*%
D16*
%TO.P,R2,1*%
%TO.N,Net-(D2-K)*%
X95520000Y-40640000D03*
%TO.P,R2,2*%
%TO.N,/PULSE*%
X97520000Y-40640000D03*
%TD*%
D17*
%TO.P,C1,1*%
%TO.N,VCC*%
X96520000Y-72622500D03*
%TO.P,C1,2*%
%TO.N,GND*%
X96520000Y-74697500D03*
%TD*%
D15*
%TO.P,D2,1,K*%
%TO.N,Net-(D2-K)*%
X95495000Y-38100000D03*
%TO.P,D2,2,A*%
%TO.N,VCC*%
X97545000Y-38100000D03*
%TD*%
D18*
%TO.P,JP1,1,A*%
%TO.N,/PULSE*%
X110460000Y-33020000D03*
D19*
%TO.P,JP1,2,C*%
%TO.N,/PULSE2H*%
X111760000Y-33020000D03*
D20*
%TO.P,JP1,3,B*%
%TO.N,VCC*%
X113060000Y-33020000D03*
%TD*%
D21*
%TO.P,BT1,1,+*%
%TO.N,/BAT*%
X126999999Y-73210000D03*
D22*
%TO.P,BT1,2,-*%
%TO.N,GND*%
X126999999Y-52720000D03*
%TD*%
D15*
%TO.P,D1,1,K*%
%TO.N,Net-(D1-K)*%
X66285000Y-36830000D03*
%TO.P,D1,2,A*%
%TO.N,VCC*%
X68335000Y-36830000D03*
%TD*%
D17*
%TO.P,C3,1*%
%TO.N,VCC*%
X99060000Y-72622500D03*
%TO.P,C3,2*%
%TO.N,GND*%
X99060000Y-74697500D03*
%TD*%
D23*
%TO.P,U1,1,GND*%
%TO.N,GND*%
X92645000Y-75565000D03*
%TO.P,U1,2,TR*%
%TO.N,/TR*%
X92645000Y-74295000D03*
%TO.P,U1,3,Q*%
%TO.N,/PULSE*%
X92645000Y-73025000D03*
%TO.P,U1,4,R*%
%TO.N,VCC*%
X92645000Y-71755000D03*
%TO.P,U1,5,CV*%
%TO.N,unconnected-(U1-CV-Pad5)*%
X87695000Y-71755000D03*
%TO.P,U1,6,THR*%
%TO.N,/TR*%
X87695000Y-73025000D03*
%TO.P,U1,7,DIS*%
%TO.N,Net-(U1-DIS)*%
X87695000Y-74295000D03*
%TO.P,U1,8,VCC*%
%TO.N,VCC*%
X87695000Y-75565000D03*
%TD*%
D16*
%TO.P,R5,1*%
%TO.N,Net-(U1-DIS)*%
X86630000Y-69850000D03*
%TO.P,R5,2*%
%TO.N,/TR*%
X88630000Y-69850000D03*
%TD*%
D24*
%TO.P,C2,1*%
%TO.N,/TR*%
X89132500Y-77470000D03*
%TO.P,C2,2*%
%TO.N,GND*%
X91207500Y-77470000D03*
%TD*%
D25*
%TO.P,R7,1*%
%TO.N,Net-(D6-K)*%
X85090000Y-47990000D03*
%TO.P,R7,2*%
%TO.N,/PULSE2L*%
X85090000Y-45990000D03*
%TD*%
D14*
%TO.P,D3,1,K*%
%TO.N,Net-(D3-K)*%
X63255000Y-77470000D03*
%TO.P,D3,2,A*%
%TO.N,VCC*%
X61205000Y-77470000D03*
%TD*%
D11*
%TO.P,R9,1*%
%TO.N,Net-(D8-K)*%
X131810000Y-43180000D03*
%TO.P,R9,2*%
%TO.N,/PULSE2L*%
X129810000Y-43180000D03*
%TD*%
D18*
%TO.P,JP2,1,A*%
%TO.N,GND*%
X76170000Y-33020000D03*
D19*
%TO.P,JP2,2,C*%
%TO.N,/PULSE2L*%
X77470000Y-33020000D03*
D20*
%TO.P,JP2,3,B*%
%TO.N,/PULSE*%
X78770000Y-33020000D03*
%TD*%
D11*
%TO.P,R6,1*%
%TO.N,Net-(D5-K)*%
X69580000Y-57150000D03*
%TO.P,R6,2*%
%TO.N,/PULSE2L*%
X67580000Y-57150000D03*
%TD*%
%TO.P,R3,1*%
%TO.N,Net-(D3-K)*%
X63230000Y-74930000D03*
%TO.P,R3,2*%
%TO.N,/PULSE*%
X61230000Y-74930000D03*
%TD*%
D16*
%TO.P,R1,1*%
%TO.N,Net-(D1-K)*%
X66310000Y-39370000D03*
%TO.P,R1,2*%
%TO.N,/PULSE*%
X68310000Y-39370000D03*
%TD*%
D26*
%TO.P,D6,1,K*%
%TO.N,Net-(D6-K)*%
X87630000Y-48015000D03*
%TO.P,D6,2,A*%
%TO.N,/PULSE2H*%
X87630000Y-45965000D03*
%TD*%
D11*
%TO.P,R8,1*%
%TO.N,Net-(D7-K)*%
X53070000Y-62230000D03*
%TO.P,R8,2*%
%TO.N,/PULSE2L*%
X51070000Y-62230000D03*
%TD*%
D27*
%TO.N,/PULSE2L*%
X77470000Y-34544000D03*
X77478000Y-47252000D03*
%TO.N,GND*%
X74930000Y-33020000D03*
%TO.N,/PULSE*%
X58166000Y-40640000D03*
X58166000Y-73152000D03*
%TO.N,VCC*%
X93980000Y-68326000D03*
%TO.N,GND*%
X91186000Y-78486000D03*
X100330000Y-74676000D03*
%TO.N,VCC*%
X57150000Y-64770000D03*
X93980000Y-60960000D03*
X76200000Y-41910000D03*
X58420000Y-77470000D03*
X57150000Y-41910000D03*
X93980000Y-64770000D03*
X93980000Y-71600000D03*
X76200000Y-36825000D03*
%TO.N,/PULSE*%
X101735000Y-64905000D03*
X102870000Y-33020000D03*
X101600000Y-40640000D03*
%TO.N,/PULSE2H*%
X90170000Y-62230000D03*
X120650000Y-31750000D03*
X120650000Y-45720000D03*
X90170000Y-45965000D03*
%TD*%
D28*
%TO.N,/PULSE2L*%
X77470000Y-33020000D02*
X77470000Y-34544000D01*
D29*
%TO.N,GND*%
X76170000Y-33020000D02*
X74930000Y-33020000D01*
D28*
%TO.N,/PULSE*%
X61230000Y-74930000D02*
X59944000Y-74930000D01*
X58928000Y-40640000D02*
X58933000Y-40645000D01*
X59944000Y-74930000D02*
X58166000Y-73152000D01*
X58166000Y-40640000D02*
X58928000Y-40640000D01*
X58933000Y-40645000D02*
X67035000Y-40645000D01*
%TO.N,VCC*%
X93980000Y-64770000D02*
X85090000Y-64770000D01*
X85090000Y-64770000D02*
X57150000Y-64770000D01*
X87695000Y-75565000D02*
X86720001Y-75565000D01*
X86720001Y-75565000D02*
X85090000Y-73934999D01*
X85090000Y-73934999D02*
X85090000Y-64770000D01*
D29*
%TO.N,Net-(U1-DIS)*%
X86630000Y-69850000D02*
X86630000Y-67818000D01*
D28*
%TO.N,VCC*%
X88630000Y-67818000D02*
X93472000Y-67818000D01*
X93472000Y-67818000D02*
X93980000Y-68326000D01*
D29*
%TO.N,Net-(U1-DIS)*%
X86630000Y-69850000D02*
X86420000Y-70060000D01*
X86420000Y-70060000D02*
X86420000Y-73365552D01*
X86420000Y-73365552D02*
X87349448Y-74295000D01*
X87349448Y-74295000D02*
X87695000Y-74295000D01*
%TO.N,GND*%
X91207500Y-77002500D02*
X92645000Y-75565000D01*
X96520000Y-74697500D02*
X95652500Y-75565000D01*
X91207500Y-78464500D02*
X91186000Y-78486000D01*
X100308500Y-74697500D02*
X100330000Y-74676000D01*
X99060000Y-74697500D02*
X96520000Y-74697500D01*
X91207500Y-77470000D02*
X91207500Y-78464500D01*
X95652500Y-75565000D02*
X92645000Y-75565000D01*
X99060000Y-74697500D02*
X100308500Y-74697500D01*
X91207500Y-77470000D02*
X91207500Y-77002500D01*
D28*
%TO.N,VCC*%
X97545000Y-38100000D02*
X109080000Y-38100000D01*
X66327500Y-82592500D02*
X61205000Y-77470000D01*
X74930000Y-82592500D02*
X66327500Y-82592500D01*
X99060000Y-72622500D02*
X96520000Y-72622500D01*
X76200000Y-36825000D02*
X96270000Y-36825000D01*
X61205000Y-77470000D02*
X58420000Y-77470000D01*
X103115000Y-60960000D02*
X93980000Y-60960000D01*
X93980000Y-71600000D02*
X92645000Y-71600000D01*
X95497500Y-71600000D02*
X93980000Y-71600000D01*
X96270000Y-36825000D02*
X97545000Y-38100000D01*
X109080000Y-38100000D02*
X113060000Y-34120000D01*
X92645000Y-71755000D02*
X93825000Y-71755000D01*
X68340000Y-36825000D02*
X76200000Y-36825000D01*
X57150000Y-41910000D02*
X76200000Y-41910000D01*
X68335000Y-36830000D02*
X68340000Y-36825000D01*
X96520000Y-72622500D02*
X95497500Y-71600000D01*
X113060000Y-34120000D02*
X113060000Y-33020000D01*
X93825000Y-71755000D02*
X93980000Y-71600000D01*
D29*
%TO.N,/TR*%
X92645000Y-74295000D02*
X91670001Y-74295000D01*
X89132500Y-76832501D02*
X89132500Y-77470000D01*
X89170000Y-71794999D02*
X90400001Y-73025000D01*
X91670001Y-74295000D02*
X89132500Y-76832501D01*
X90400001Y-73025000D02*
X87695000Y-73025000D01*
X91670001Y-74295000D02*
X90400001Y-73025000D01*
X89170000Y-69850000D02*
X89170000Y-71794999D01*
%TO.N,Net-(D1-K)*%
X66310000Y-36855000D02*
X66285000Y-36830000D01*
X66310000Y-39370000D02*
X66310000Y-36855000D01*
X66285000Y-39395000D02*
X66310000Y-39370000D01*
%TO.N,Net-(D2-K)*%
X95495000Y-38100000D02*
X95495000Y-40615000D01*
X95495000Y-40615000D02*
X95520000Y-40640000D01*
%TO.N,Net-(D3-K)*%
X63230000Y-77445000D02*
X63255000Y-77470000D01*
X63230000Y-74930000D02*
X63230000Y-77445000D01*
%TO.N,Net-(D4-K)*%
X105165000Y-60960000D02*
X105165000Y-63475000D01*
X105140000Y-60985000D02*
X105165000Y-60960000D01*
X105165000Y-63475000D02*
X105140000Y-63500000D01*
%TO.N,Net-(D5-K)*%
X69580000Y-57150000D02*
X69580000Y-59665000D01*
X69580000Y-59665000D02*
X69605000Y-59690000D01*
%TO.N,Net-(D6-K)*%
X85115000Y-48015000D02*
X85090000Y-47990000D01*
X87630000Y-48015000D02*
X85115000Y-48015000D01*
%TO.N,Net-(D7-K)*%
X54855000Y-62230000D02*
X53070000Y-62230000D01*
%TO.N,Net-(D8-K)*%
X131835000Y-43155000D02*
X131810000Y-43180000D01*
X131835000Y-40640000D02*
X131835000Y-43155000D01*
D28*
%TO.N,/PULSE*%
X97520000Y-40640000D02*
X101600000Y-40640000D01*
X96790000Y-69850000D02*
X101735000Y-64905000D01*
X102870000Y-33020000D02*
X78770000Y-33020000D01*
X91670001Y-73025000D02*
X90170000Y-71524999D01*
X77330000Y-30480000D02*
X68580000Y-30480000D01*
X110460000Y-33020000D02*
X102870000Y-33020000D01*
X64770000Y-39803654D02*
X65611346Y-40645000D01*
X91170000Y-69850000D02*
X96790000Y-69850000D01*
X67035000Y-40645000D02*
X68310000Y-39370000D01*
X78770000Y-31920000D02*
X77330000Y-30480000D01*
X64770000Y-34290000D02*
X64770000Y-39803654D01*
X78770000Y-33020000D02*
X78770000Y-31920000D01*
X101735000Y-64905000D02*
X103140000Y-63500000D01*
X65611346Y-40645000D02*
X67035000Y-40645000D01*
X92645000Y-73025000D02*
X91670001Y-73025000D01*
X90170000Y-71524999D02*
X90170000Y-70850000D01*
X90170000Y-70850000D02*
X91170000Y-69850000D01*
X68580000Y-30480000D02*
X64770000Y-34290000D01*
%TO.N,/PULSE2H*%
X111760000Y-31750000D02*
X111820000Y-31690000D01*
X56905000Y-62230000D02*
X65015000Y-62230000D01*
X90170000Y-45965000D02*
X120405000Y-45965000D01*
X120405000Y-45965000D02*
X120650000Y-45720000D01*
X111760000Y-33020000D02*
X111760000Y-31750000D01*
X65015000Y-62230000D02*
X90170000Y-62230000D01*
X111820000Y-31690000D02*
X120835000Y-31690000D01*
X65015000Y-62230000D02*
X67555000Y-59690000D01*
X120835000Y-31690000D02*
X129785000Y-40640000D01*
X87630000Y-45965000D02*
X90170000Y-45965000D01*
%TO.N,/PULSE2L*%
X56150000Y-57150000D02*
X51070000Y-62230000D01*
X87630000Y-43180000D02*
X81550000Y-43180000D01*
X67580000Y-57150000D02*
X56150000Y-57150000D01*
X85090000Y-45990000D02*
X85090000Y-45720000D01*
X81550000Y-43180000D02*
X67580000Y-57150000D01*
X85090000Y-45720000D02*
X87630000Y-43180000D01*
X129810000Y-43180000D02*
X87630000Y-43180000D01*
%TO.N,/BAT*%
X79318500Y-79361000D02*
X74930000Y-74972500D01*
X120848999Y-79361000D02*
X79318500Y-79361000D01*
X126999999Y-73210000D02*
X120848999Y-79361000D01*
%TD*%
M02*
