M48
; DRILL file {KiCad 8.0.6-8.0.6-0~ubuntu22.04.1} date 2024-11-10T20:49:55-0500
; FORMAT={-:-/ absolute / metric / decimal}
; #@! TF.CreationDate,2024-11-10T20:49:55-05:00
; #@! TF.GenerationSoftware,Kicad,Pcbnew,8.0.6-8.0.6-0~ubuntu22.04.1
; #@! TF.FileFunction,MixedPlating,1,2
FMAT,2
METRIC
; #@! TA.AperFunction,Plated,PTH,ViaDrill
T1C0.300
; #@! TA.AperFunction,Plated,PTH,ComponentDrill
T2C0.800
; #@! TA.AperFunction,Plated,PTH,ComponentDrill
T3C1.500
%
G90
G05
T1
X57.15Y-41.91
X57.15Y-64.77
X58.166Y-40.64
X58.166Y-73.152
X58.42Y-77.47
X74.93Y-33.02
X76.2Y-36.825
X76.2Y-41.91
X77.47Y-34.544
X77.478Y-47.252
X90.17Y-45.965
X90.17Y-62.23
X91.186Y-78.486
X93.98Y-60.96
X93.98Y-64.77
X93.98Y-68.326
X93.98Y-71.6
X100.33Y-74.676
X101.6Y-40.64
X101.735Y-64.905
X102.87Y-33.02
X120.65Y-31.75
X120.65Y-45.72
T2
X74.93Y-74.972
X74.93Y-82.593
T3
X127.0Y-52.72
X127.0Y-73.21
M30
