%TF.GenerationSoftware,KiCad,Pcbnew,8.0.5-8.0.5-0~ubuntu22.04.1*%
%TF.CreationDate,2024-10-22T12:45:21-04:00*%
%TF.ProjectId,Badge,42616467-652e-46b6-9963-61645f706362,1.0*%
%TF.SameCoordinates,Original*%
%TF.FileFunction,Profile,NP*%
%FSLAX46Y46*%
G04 Gerber Fmt 4.6, Leading zero omitted, Abs format (unit mm)*
G04 Created by KiCad (PCBNEW 8.0.5-8.0.5-0~ubuntu22.04.1) date 2024-10-22 12:45:21*
%MOMM*%
%LPD*%
G01*
G04 APERTURE LIST*
%TA.AperFunction,Profile*%
%ADD10C,0.109999*%
%TD*%
G04 APERTURE END LIST*
D10*
X122816112Y-29055765D02*
X123193004Y-29101120D01*
X123565852Y-29164676D01*
X123934974Y-29245030D01*
X124663304Y-29450517D01*
X125380532Y-29706350D01*
X126089194Y-30001300D01*
X126791825Y-30324136D01*
X128189140Y-31008548D01*
X128888896Y-31347665D01*
X129592766Y-31669749D01*
X130303286Y-31963570D01*
X131022992Y-32217898D01*
X131754421Y-32421504D01*
X132125324Y-32500777D01*
X132500108Y-32563158D01*
X132879091Y-32607243D01*
X133262590Y-32631630D01*
X133650921Y-32634913D01*
X134044402Y-32615689D01*
X135082971Y-32856601D01*
X136133693Y-33161572D01*
X137185644Y-33529570D01*
X138227902Y-33959561D01*
X139249546Y-34450514D01*
X140239653Y-35001395D01*
X141187302Y-35611173D01*
X141641791Y-35937826D01*
X142081569Y-36278815D01*
X142505271Y-36634013D01*
X142911533Y-37003289D01*
X143298988Y-37386515D01*
X143666271Y-37783562D01*
X144012018Y-38194300D01*
X144334862Y-38618601D01*
X144633439Y-39056335D01*
X144906383Y-39507374D01*
X145152329Y-39971589D01*
X145369912Y-40448849D01*
X145557767Y-40939027D01*
X145714527Y-41441994D01*
X145838829Y-41957619D01*
X145929306Y-42485775D01*
X145984593Y-43026331D01*
X146003326Y-43579160D01*
X146003326Y-66097028D01*
X145607258Y-66971030D01*
X145270253Y-67872053D01*
X144981376Y-68795210D01*
X144729696Y-69735617D01*
X143876294Y-73572021D01*
X143646612Y-74525387D01*
X143388531Y-75466688D01*
X143091121Y-76391038D01*
X142743448Y-77293551D01*
X142334580Y-78169342D01*
X142103782Y-78595689D01*
X141853586Y-79013524D01*
X141582624Y-79422236D01*
X141289531Y-79821213D01*
X140972940Y-80209845D01*
X140631484Y-80587522D01*
X140055863Y-81104211D01*
X139456147Y-81589329D01*
X138834130Y-82042886D01*
X138191608Y-82464893D01*
X137530376Y-82855358D01*
X136852228Y-83214293D01*
X136158960Y-83541707D01*
X135452367Y-83837610D01*
X134734244Y-84102013D01*
X134006386Y-84334924D01*
X133270588Y-84536354D01*
X132528645Y-84706314D01*
X131782351Y-84844813D01*
X131033504Y-84951861D01*
X130283896Y-85027468D01*
X129535323Y-85071645D01*
X93864513Y-86430005D01*
X55337733Y-86430005D01*
X54893686Y-86460786D01*
X54452324Y-86469985D01*
X54014168Y-86458053D01*
X53579735Y-86425441D01*
X53149546Y-86372599D01*
X52724120Y-86299978D01*
X52303977Y-86208029D01*
X51889634Y-86097202D01*
X51481613Y-85967948D01*
X51080432Y-85820719D01*
X50686610Y-85655964D01*
X50300666Y-85474135D01*
X49923121Y-85275682D01*
X49554493Y-85061056D01*
X49195302Y-84830708D01*
X48846067Y-84585088D01*
X48507307Y-84324647D01*
X48179542Y-84049836D01*
X47863291Y-83761106D01*
X47559073Y-83458908D01*
X47267407Y-83143691D01*
X46988813Y-82815907D01*
X46723811Y-82476007D01*
X46472918Y-82124442D01*
X46236656Y-81761661D01*
X46015543Y-81388116D01*
X45810098Y-81004258D01*
X45620841Y-80610537D01*
X45448290Y-80207405D01*
X45292966Y-79795311D01*
X45155388Y-79374706D01*
X45036075Y-78946042D01*
X44622346Y-78809626D01*
X44178194Y-78630374D01*
X43714251Y-78409654D01*
X43241150Y-78148833D01*
X42769527Y-77849279D01*
X42310013Y-77512360D01*
X41873243Y-77139442D01*
X41666709Y-76939911D01*
X41469849Y-76731894D01*
X41283991Y-76515560D01*
X41110466Y-76291082D01*
X40950601Y-76058630D01*
X40805726Y-75818374D01*
X40677171Y-75570487D01*
X40566264Y-75315138D01*
X40474335Y-75052500D01*
X40402712Y-74782742D01*
X40352726Y-74506036D01*
X40325705Y-74222552D01*
X40322978Y-73932462D01*
X40345875Y-73635937D01*
X40395725Y-73333146D01*
X40473857Y-73024263D01*
X40581600Y-72709456D01*
X40720283Y-72388898D01*
X41049228Y-72163043D01*
X41342228Y-71935669D01*
X41600394Y-71707037D01*
X41824834Y-71477413D01*
X42016660Y-71247058D01*
X42176980Y-71016238D01*
X42306904Y-70785215D01*
X42407543Y-70554252D01*
X42480006Y-70323614D01*
X42525404Y-70093564D01*
X42544845Y-69864365D01*
X42539440Y-69636281D01*
X42510298Y-69409576D01*
X42458531Y-69184512D01*
X42385246Y-68961354D01*
X42291555Y-68740364D01*
X42178567Y-68521807D01*
X42047392Y-68305946D01*
X41899140Y-68093044D01*
X41734920Y-67883365D01*
X41555843Y-67677172D01*
X41363018Y-67474730D01*
X40940565Y-67082148D01*
X40476439Y-66707729D01*
X39979520Y-66353579D01*
X39458686Y-66021807D01*
X38922817Y-65714520D01*
X38609181Y-65302548D01*
X38327866Y-64883834D01*
X38077808Y-64458856D01*
X37857950Y-64028090D01*
X37667228Y-63592013D01*
X37504584Y-63151103D01*
X37368957Y-62705836D01*
X37259285Y-62256688D01*
X37174509Y-61804137D01*
X37113567Y-61348660D01*
X37075400Y-60890732D01*
X37058946Y-60430832D01*
X37086938Y-59507021D01*
X37189057Y-58581039D01*
X37356820Y-57656703D01*
X37581741Y-56737827D01*
X37855337Y-55828224D01*
X38169122Y-54931711D01*
X38514612Y-54052101D01*
X38883323Y-53193209D01*
X39656467Y-51552838D01*
X39211504Y-50973619D01*
X38802646Y-50392719D01*
X38431401Y-49808722D01*
X38099279Y-49220212D01*
X37807791Y-48625772D01*
X37558444Y-48023986D01*
X37352748Y-47413439D01*
X37192214Y-46792713D01*
X37078351Y-46160393D01*
X37012668Y-45515062D01*
X36996674Y-44855305D01*
X37031879Y-44179704D01*
X37119793Y-43486845D01*
X37261925Y-42775309D01*
X37459785Y-42043682D01*
X37714881Y-41290547D01*
X37846832Y-40848642D01*
X37999647Y-40425942D01*
X38172546Y-40022087D01*
X38364752Y-39636719D01*
X38575484Y-39269476D01*
X38803964Y-38920000D01*
X39049412Y-38587930D01*
X39311051Y-38272906D01*
X39588099Y-37974570D01*
X39879780Y-37692560D01*
X40185313Y-37426517D01*
X40503919Y-37176082D01*
X41177235Y-36720593D01*
X41893497Y-36323216D01*
X42646471Y-35981072D01*
X43429925Y-35691282D01*
X44237628Y-35450968D01*
X45063345Y-35257251D01*
X45900846Y-35107252D01*
X46743897Y-34998094D01*
X47586266Y-34926896D01*
X48421722Y-34890782D01*
X48421718Y-34890782D01*
X49434945Y-34810870D01*
X50427435Y-34643494D01*
X51406543Y-34399213D01*
X52379623Y-34088587D01*
X53354031Y-33722177D01*
X54337123Y-33310542D01*
X56358777Y-32393838D01*
X58503426Y-31422954D01*
X59640261Y-30943594D01*
X60829911Y-30482369D01*
X62079731Y-30049839D01*
X63397075Y-29656563D01*
X64789299Y-29313102D01*
X66263759Y-29030015D01*
X122434859Y-29030015D01*
X122816112Y-29055765D01*
M02*
