%TF.GenerationSoftware,KiCad,Pcbnew,8.0.5-8.0.5-0~ubuntu22.04.1*%
%TF.CreationDate,2024-10-22T12:45:21-04:00*%
%TF.ProjectId,Badge,42616467-652e-46b6-9963-61645f706362,1.0*%
%TF.SameCoordinates,Original*%
%TF.FileFunction,Copper,L2,Bot*%
%TF.FilePolarity,Positive*%
%FSLAX46Y46*%
G04 Gerber Fmt 4.6, Leading zero omitted, Abs format (unit mm)*
G04 Created by KiCad (PCBNEW 8.0.5-8.0.5-0~ubuntu22.04.1) date 2024-10-22 12:45:21*
%MOMM*%
%LPD*%
G01*
G04 APERTURE LIST*
%TA.AperFunction,ComponentPad*%
%ADD10R,1.600000X1.600000*%
%TD*%
%TA.AperFunction,ComponentPad*%
%ADD11O,1.600000X1.600000*%
%TD*%
%TA.AperFunction,ComponentPad*%
%ADD12R,3.000000X3.000000*%
%TD*%
%TA.AperFunction,ComponentPad*%
%ADD13C,3.000000*%
%TD*%
%TA.AperFunction,ViaPad*%
%ADD14C,0.600000*%
%TD*%
%TA.AperFunction,Conductor*%
%ADD15C,0.750000*%
%TD*%
G04 APERTURE END LIST*
D10*
%TO.P,SW1,1,A*%
%TO.N,/BAT*%
X74930000Y-74972500D03*
D11*
%TO.P,SW1,2,B*%
%TO.N,VCC*%
X74930000Y-82592500D03*
%TD*%
D12*
%TO.P,BT1,1,+*%
%TO.N,/BAT*%
X126999999Y-73210000D03*
D13*
%TO.P,BT1,2,-*%
%TO.N,GND*%
X126999999Y-52720000D03*
%TD*%
D14*
%TO.N,/PULSE2L*%
X77470000Y-34544000D03*
X77478000Y-47252000D03*
%TO.N,GND*%
X74930000Y-33020000D03*
%TO.N,/PULSE*%
X58166000Y-40640000D03*
X58166000Y-73152000D03*
%TO.N,VCC*%
X93980000Y-68326000D03*
%TO.N,GND*%
X91186000Y-78486000D03*
X100330000Y-74676000D03*
%TO.N,VCC*%
X57150000Y-64770000D03*
X93980000Y-60960000D03*
X76200000Y-41910000D03*
X58420000Y-77470000D03*
X57150000Y-41910000D03*
X93980000Y-64770000D03*
X93980000Y-71600000D03*
X76200000Y-36825000D03*
%TO.N,/PULSE*%
X101735000Y-64905000D03*
X102870000Y-33020000D03*
X101600000Y-40640000D03*
%TO.N,/PULSE2H*%
X90170000Y-62230000D03*
X120650000Y-31750000D03*
X120650000Y-45720000D03*
X90170000Y-45965000D03*
%TD*%
D15*
%TO.N,/PULSE2L*%
X77470000Y-34544000D02*
X77470000Y-47244000D01*
X77470000Y-47244000D02*
X77478000Y-47252000D01*
%TO.N,/PULSE*%
X58166000Y-73152000D02*
X58166000Y-40640000D01*
%TO.N,VCC*%
X93980000Y-71600000D02*
X93980000Y-68326000D01*
X93980000Y-68326000D02*
X93980000Y-64770000D01*
X76200000Y-41910000D02*
X76200000Y-36825000D01*
X58420000Y-77470000D02*
X57150000Y-76200000D01*
X57150000Y-64770000D02*
X57150000Y-41910000D01*
X57150000Y-76200000D02*
X57150000Y-64770000D01*
X93980000Y-64770000D02*
X93980000Y-60960000D01*
%TO.N,/PULSE*%
X101600000Y-40640000D02*
X101600000Y-34290000D01*
X101600000Y-64770000D02*
X101735000Y-64905000D01*
X101600000Y-40640000D02*
X101600000Y-64770000D01*
X101600000Y-34290000D02*
X102870000Y-33020000D01*
%TO.N,/PULSE2H*%
X90170000Y-62230000D02*
X90170000Y-45965000D01*
X120650000Y-45720000D02*
X120650000Y-31750000D01*
%TD*%
%TA.AperFunction,Conductor*%
%TO.N,GND*%
G36*
X122422150Y-29530797D02*
G01*
X122450905Y-29532739D01*
X122766114Y-29554027D01*
X122772505Y-29554627D01*
X123117983Y-29596202D01*
X123123994Y-29597075D01*
X123467792Y-29655680D01*
X123473274Y-29656744D01*
X123810013Y-29730048D01*
X123817267Y-29731859D01*
X124216375Y-29844461D01*
X124507069Y-29926476D01*
X124515059Y-29929025D01*
X125197163Y-30172330D01*
X125203148Y-30174641D01*
X125886446Y-30459034D01*
X125890481Y-30460799D01*
X126575860Y-30775709D01*
X126578626Y-30777022D01*
X127902714Y-31425567D01*
X127906743Y-31427869D01*
X127969672Y-31458365D01*
X127970084Y-31458565D01*
X128028158Y-31487011D01*
X128028160Y-31487011D01*
X128032980Y-31489372D01*
X128037276Y-31491128D01*
X128047412Y-31496040D01*
X128604230Y-31765885D01*
X128616025Y-31772417D01*
X128620720Y-31775361D01*
X128620721Y-31775361D01*
X128620723Y-31775363D01*
X128674422Y-31799935D01*
X128676842Y-31801075D01*
X128729920Y-31826798D01*
X128729922Y-31826798D01*
X128735177Y-31828542D01*
X128747723Y-31833476D01*
X129320420Y-32095536D01*
X129333388Y-32103337D01*
X129333571Y-32103022D01*
X129340612Y-32107082D01*
X129390809Y-32127840D01*
X129395000Y-32129664D01*
X129444426Y-32152281D01*
X129444428Y-32152281D01*
X129452196Y-32154669D01*
X129452088Y-32155018D01*
X129466633Y-32159195D01*
X130051387Y-32401008D01*
X130074173Y-32413363D01*
X130074399Y-32413518D01*
X130121112Y-32430025D01*
X130127146Y-32432337D01*
X130172914Y-32451264D01*
X130172916Y-32451264D01*
X130172918Y-32451265D01*
X130173185Y-32451300D01*
X130198390Y-32457333D01*
X130792809Y-32667387D01*
X130799052Y-32669593D01*
X130820774Y-32679726D01*
X130825294Y-32682395D01*
X130868270Y-32694357D01*
X130876301Y-32696891D01*
X130918359Y-32711754D01*
X130923591Y-32712162D01*
X130947191Y-32716327D01*
X131559567Y-32886792D01*
X131582737Y-32895831D01*
X131585370Y-32897176D01*
X131585372Y-32897176D01*
X131585375Y-32897178D01*
X131631200Y-32906972D01*
X131638526Y-32908773D01*
X131683680Y-32921342D01*
X131686632Y-32921370D01*
X131711352Y-32924102D01*
X131954455Y-32976061D01*
X131970373Y-32981312D01*
X131970378Y-32981297D01*
X131978148Y-32983665D01*
X131978151Y-32983666D01*
X131988313Y-32985357D01*
X132029088Y-32992144D01*
X132034642Y-32993198D01*
X132085152Y-33003995D01*
X132085159Y-33003994D01*
X132093259Y-33004642D01*
X132093257Y-33004658D01*
X132109999Y-33005611D01*
X132183643Y-33017868D01*
X132352176Y-33045920D01*
X132373640Y-33051890D01*
X132376822Y-33052691D01*
X132376825Y-33052691D01*
X132376827Y-33052692D01*
X132427052Y-33058533D01*
X132433050Y-33059380D01*
X132482930Y-33067684D01*
X132482933Y-33067683D01*
X132482935Y-33067684D01*
X132486248Y-33067797D01*
X132508484Y-33068006D01*
X132756048Y-33096804D01*
X132781347Y-33102477D01*
X132781569Y-33102552D01*
X132831035Y-33105696D01*
X132837468Y-33106275D01*
X132886711Y-33112004D01*
X132886943Y-33111969D01*
X132912849Y-33110900D01*
X133166168Y-33127008D01*
X133191411Y-33131262D01*
X133191700Y-33131342D01*
X133192469Y-33131555D01*
X133241172Y-33131966D01*
X133247984Y-33132211D01*
X133296587Y-33135303D01*
X133297654Y-33135088D01*
X133323142Y-33132658D01*
X133582606Y-33134852D01*
X133607772Y-33137651D01*
X133609531Y-33138032D01*
X133657499Y-33135688D01*
X133664533Y-33135545D01*
X133712580Y-33135952D01*
X133714321Y-33135501D01*
X133739347Y-33131689D01*
X133981960Y-33119835D01*
X134016020Y-33122893D01*
X134953291Y-33340308D01*
X134959820Y-33342012D01*
X135977979Y-33637531D01*
X135984336Y-33639564D01*
X137004239Y-33996351D01*
X137010557Y-33998757D01*
X138020682Y-34415491D01*
X138027044Y-34418329D01*
X138482016Y-34636967D01*
X139015947Y-34893549D01*
X139022526Y-34896957D01*
X139978826Y-35429028D01*
X139985638Y-35433108D01*
X140902985Y-36023388D01*
X140908228Y-36026956D01*
X141169399Y-36214666D01*
X141340478Y-36337625D01*
X141344090Y-36340322D01*
X141765472Y-36667048D01*
X141769153Y-36670016D01*
X141891995Y-36772997D01*
X142163001Y-37000187D01*
X142174148Y-37009531D01*
X142177854Y-37012766D01*
X142565183Y-37364833D01*
X142568912Y-37368369D01*
X142876160Y-37672263D01*
X142937175Y-37732612D01*
X142940994Y-37736561D01*
X143243600Y-38063690D01*
X143288930Y-38112693D01*
X143292758Y-38117031D01*
X143469907Y-38327479D01*
X143619211Y-38504848D01*
X143623026Y-38509614D01*
X143791686Y-38731277D01*
X143926755Y-38908792D01*
X143930512Y-38914005D01*
X144210397Y-39324337D01*
X144214043Y-39330008D01*
X144440371Y-39704014D01*
X144468959Y-39751254D01*
X144472444Y-39757401D01*
X144701377Y-40189507D01*
X144704633Y-40196121D01*
X144906502Y-40638912D01*
X144909462Y-40645976D01*
X145083278Y-41099523D01*
X145085873Y-41107000D01*
X145230596Y-41571343D01*
X145232760Y-41579180D01*
X145347368Y-42054592D01*
X145349041Y-42062715D01*
X145432420Y-42549438D01*
X145433556Y-42557758D01*
X145484526Y-43056103D01*
X145485099Y-43064520D01*
X145502755Y-43585529D01*
X145502826Y-43589729D01*
X145502826Y-65962130D01*
X145491770Y-66013311D01*
X145339168Y-66350058D01*
X145176494Y-66709029D01*
X145164496Y-66729860D01*
X145161558Y-66733977D01*
X145145867Y-66775927D01*
X145142672Y-66783663D01*
X145124184Y-66824462D01*
X145124183Y-66824465D01*
X145123358Y-66829460D01*
X145117160Y-66852678D01*
X144824209Y-67635918D01*
X144812802Y-67658860D01*
X144812272Y-67659695D01*
X144797687Y-67706300D01*
X144795491Y-67712700D01*
X144778386Y-67758435D01*
X144778293Y-67759408D01*
X144773207Y-67784533D01*
X144524314Y-68579910D01*
X144517876Y-68594594D01*
X144518032Y-68594659D01*
X144514927Y-68602160D01*
X144501261Y-68653221D01*
X144499819Y-68658189D01*
X144484038Y-68708622D01*
X144482644Y-68716632D01*
X144482476Y-68716602D01*
X144480057Y-68732450D01*
X144263973Y-69539851D01*
X144258102Y-69554940D01*
X144258229Y-69554987D01*
X144255446Y-69562614D01*
X144244034Y-69613916D01*
X144242779Y-69619042D01*
X144229176Y-69669874D01*
X144228118Y-69677933D01*
X144227983Y-69677915D01*
X144226216Y-69694016D01*
X143388927Y-73457984D01*
X143388437Y-73460102D01*
X143162315Y-74398687D01*
X143161351Y-74402432D01*
X142909454Y-75321177D01*
X142907908Y-75326368D01*
X142620072Y-76220968D01*
X142617742Y-76227564D01*
X142284163Y-77093489D01*
X142280811Y-77101369D01*
X141888910Y-77940817D01*
X141885598Y-77947393D01*
X141670081Y-78345512D01*
X141667420Y-78350184D01*
X141431545Y-78744103D01*
X141428509Y-78748918D01*
X141173770Y-79133157D01*
X141170353Y-79138051D01*
X140895427Y-79512300D01*
X140891632Y-79517205D01*
X140595049Y-79881275D01*
X140590892Y-79886118D01*
X140282063Y-80227706D01*
X140272912Y-80236824D01*
X139733468Y-80721040D01*
X139728623Y-80725169D01*
X139153547Y-81190355D01*
X139148620Y-81194141D01*
X138551583Y-81629483D01*
X138546598Y-81632934D01*
X137929284Y-82038384D01*
X137924262Y-82041513D01*
X137288419Y-82416986D01*
X137283375Y-82419808D01*
X136630690Y-82765266D01*
X136625637Y-82767795D01*
X135957846Y-83083178D01*
X135952790Y-83085430D01*
X135271632Y-83370681D01*
X135266577Y-83372668D01*
X134573964Y-83627679D01*
X134568913Y-83629417D01*
X133866471Y-83854195D01*
X133861420Y-83855693D01*
X133151074Y-84050154D01*
X133146021Y-84051424D01*
X132429594Y-84215539D01*
X132424532Y-84216588D01*
X131703769Y-84350349D01*
X131698690Y-84351183D01*
X130975494Y-84454564D01*
X130970391Y-84455186D01*
X130246606Y-84528189D01*
X130241467Y-84528600D01*
X129512318Y-84571631D01*
X129509732Y-84571756D01*
X93857353Y-85929415D01*
X93852634Y-85929505D01*
X55398057Y-85929505D01*
X55374324Y-85927212D01*
X55368856Y-85926146D01*
X55368854Y-85926146D01*
X55324684Y-85929208D01*
X55316109Y-85929505D01*
X55271841Y-85929505D01*
X55266453Y-85930948D01*
X55242947Y-85934873D01*
X54874140Y-85960439D01*
X54868149Y-85960709D01*
X54456911Y-85969280D01*
X54450951Y-85969261D01*
X54042680Y-85958143D01*
X54036774Y-85957841D01*
X53631939Y-85927451D01*
X53626103Y-85926874D01*
X53225084Y-85877615D01*
X53219337Y-85876772D01*
X52822613Y-85809050D01*
X52816968Y-85807951D01*
X52424993Y-85722167D01*
X52419462Y-85720823D01*
X52032670Y-85617365D01*
X52027264Y-85615787D01*
X51646110Y-85495045D01*
X51640836Y-85493242D01*
X51265904Y-85355645D01*
X51260785Y-85353636D01*
X51050275Y-85265569D01*
X50892464Y-85199549D01*
X50887473Y-85197330D01*
X50526294Y-85027169D01*
X50521477Y-85024770D01*
X50255583Y-84885006D01*
X50167967Y-84838951D01*
X50163270Y-84836351D01*
X49817922Y-84635279D01*
X49813400Y-84632514D01*
X49476707Y-84416595D01*
X49472315Y-84413644D01*
X49279602Y-84278108D01*
X49144826Y-84183319D01*
X49140620Y-84180225D01*
X48868443Y-83970973D01*
X48822839Y-83935912D01*
X48818748Y-83932627D01*
X48511210Y-83674775D01*
X48507273Y-83671330D01*
X48339361Y-83518031D01*
X48210451Y-83400339D01*
X48206724Y-83396790D01*
X47921125Y-83113088D01*
X47917506Y-83109338D01*
X47741761Y-82919403D01*
X47643715Y-82813439D01*
X47640270Y-82809557D01*
X47455785Y-82592498D01*
X73624532Y-82592498D01*
X73624532Y-82592501D01*
X73644364Y-82819186D01*
X73644366Y-82819197D01*
X73703258Y-83038988D01*
X73703261Y-83038997D01*
X73799431Y-83245232D01*
X73799432Y-83245234D01*
X73929954Y-83431641D01*
X74090858Y-83592545D01*
X74090861Y-83592547D01*
X74277266Y-83723068D01*
X74483504Y-83819239D01*
X74703308Y-83878135D01*
X74865230Y-83892301D01*
X74929998Y-83897968D01*
X74930000Y-83897968D01*
X74930002Y-83897968D01*
X74986673Y-83893009D01*
X75156692Y-83878135D01*
X75376496Y-83819239D01*
X75582734Y-83723068D01*
X75769139Y-83592547D01*
X75930047Y-83431639D01*
X76060568Y-83245234D01*
X76156739Y-83038996D01*
X76215635Y-82819192D01*
X76235468Y-82592500D01*
X76215635Y-82365808D01*
X76156739Y-82146004D01*
X76060568Y-81939766D01*
X75930047Y-81753361D01*
X75930045Y-81753358D01*
X75769141Y-81592454D01*
X75582734Y-81461932D01*
X75582732Y-81461931D01*
X75376497Y-81365761D01*
X75376488Y-81365758D01*
X75156697Y-81306866D01*
X75156693Y-81306865D01*
X75156692Y-81306865D01*
X75156691Y-81306864D01*
X75156686Y-81306864D01*
X74930002Y-81287032D01*
X74929998Y-81287032D01*
X74703313Y-81306864D01*
X74703302Y-81306866D01*
X74483511Y-81365758D01*
X74483502Y-81365761D01*
X74277267Y-81461931D01*
X74277265Y-81461932D01*
X74090858Y-81592454D01*
X73929954Y-81753358D01*
X73799432Y-81939765D01*
X73799431Y-81939767D01*
X73703261Y-82146002D01*
X73703258Y-82146011D01*
X73644366Y-82365802D01*
X73644364Y-82365813D01*
X73624532Y-82592498D01*
X47455785Y-82592498D01*
X47378706Y-82501809D01*
X47375399Y-82497746D01*
X47126666Y-82178713D01*
X47123523Y-82174502D01*
X46989241Y-81986338D01*
X46888008Y-81844485D01*
X46885073Y-81840180D01*
X46663327Y-81499690D01*
X46660549Y-81495216D01*
X46480093Y-81190355D01*
X46453083Y-81144725D01*
X46450466Y-81140078D01*
X46318690Y-80893865D01*
X46257760Y-80780022D01*
X46255330Y-80775235D01*
X46251845Y-80767984D01*
X46077835Y-80405984D01*
X46075603Y-80401069D01*
X46005302Y-80236824D01*
X45913807Y-80023063D01*
X45911780Y-80018023D01*
X45910089Y-80013537D01*
X45766178Y-79631722D01*
X45764356Y-79626539D01*
X45635425Y-79232371D01*
X45633821Y-79227071D01*
X45523803Y-78831801D01*
X45521861Y-78823804D01*
X45512665Y-78779598D01*
X45512665Y-78779597D01*
X45510561Y-78775424D01*
X45501829Y-78752853D01*
X45500578Y-78748357D01*
X45490528Y-78731332D01*
X45477616Y-78709458D01*
X45473671Y-78702238D01*
X45453348Y-78661921D01*
X45453346Y-78661917D01*
X45453342Y-78661912D01*
X45450230Y-78658425D01*
X45435961Y-78638894D01*
X45433586Y-78634871D01*
X45401351Y-78603253D01*
X45395672Y-78597301D01*
X45379907Y-78579639D01*
X45365592Y-78563601D01*
X45365590Y-78563600D01*
X45365590Y-78563599D01*
X45361683Y-78561038D01*
X45342841Y-78545863D01*
X45339508Y-78542594D01*
X45339503Y-78542590D01*
X45300170Y-78520385D01*
X45293153Y-78516110D01*
X45255380Y-78491347D01*
X45255375Y-78491344D01*
X45250936Y-78489881D01*
X45228816Y-78480103D01*
X45224743Y-78477804D01*
X45224742Y-78477803D01*
X45224739Y-78477802D01*
X45181007Y-78466536D01*
X45173118Y-78464222D01*
X45054107Y-78424982D01*
X44798381Y-78340663D01*
X44790804Y-78337888D01*
X44383010Y-78173311D01*
X44376146Y-78170296D01*
X44333579Y-78150045D01*
X43946123Y-77965712D01*
X43939532Y-77962332D01*
X43912434Y-77947393D01*
X43499756Y-77719882D01*
X43493140Y-77715963D01*
X43055472Y-77437975D01*
X43048634Y-77433304D01*
X42624607Y-77122403D01*
X42617411Y-77116706D01*
X42212829Y-76771270D01*
X42207190Y-76766147D01*
X42024519Y-76589671D01*
X42020612Y-76585724D01*
X41843696Y-76398781D01*
X41839719Y-76394372D01*
X41674124Y-76201623D01*
X41670092Y-76196676D01*
X41610285Y-76119308D01*
X41517069Y-75998720D01*
X41513006Y-75993150D01*
X41394179Y-75820370D01*
X41373574Y-75790409D01*
X41369557Y-75784176D01*
X41302005Y-75672149D01*
X41244684Y-75577091D01*
X41240798Y-75570151D01*
X41131349Y-75359104D01*
X41127692Y-75351418D01*
X41114557Y-75321177D01*
X41034418Y-75136668D01*
X41031124Y-75128255D01*
X40954697Y-74909906D01*
X40951887Y-74900760D01*
X40937744Y-74847493D01*
X40892927Y-74678694D01*
X40890754Y-74668938D01*
X40849897Y-74442768D01*
X40848487Y-74432531D01*
X40826485Y-74201693D01*
X40825931Y-74191094D01*
X40825306Y-74124616D01*
X40823709Y-73954764D01*
X40824072Y-73944061D01*
X40842817Y-73701284D01*
X40844093Y-73690715D01*
X40885287Y-73440506D01*
X40887419Y-73430274D01*
X40952793Y-73171825D01*
X40955687Y-73162087D01*
X41029895Y-72945263D01*
X41047184Y-72894744D01*
X41050691Y-72885678D01*
X41108227Y-72752687D01*
X41151841Y-72699704D01*
X41279953Y-72611742D01*
X41302058Y-72599670D01*
X41304016Y-72598847D01*
X41341709Y-72569594D01*
X41347498Y-72565366D01*
X41386845Y-72538352D01*
X41388219Y-72536743D01*
X41406449Y-72519355D01*
X41600331Y-72368899D01*
X41620967Y-72355919D01*
X41624725Y-72354044D01*
X41658913Y-72323765D01*
X41665066Y-72318663D01*
X41701129Y-72290679D01*
X41703659Y-72287343D01*
X41720235Y-72269459D01*
X41887724Y-72121131D01*
X41906714Y-72107289D01*
X41907438Y-72106859D01*
X41912260Y-72104002D01*
X41942600Y-72072959D01*
X41949045Y-72066823D01*
X41981548Y-72038041D01*
X41985105Y-72032660D01*
X41999868Y-72014369D01*
X42142882Y-71868051D01*
X42160058Y-71853417D01*
X42167275Y-71848325D01*
X42193538Y-71816786D01*
X42200117Y-71809496D01*
X42228816Y-71780135D01*
X42233156Y-71772413D01*
X42245945Y-71753851D01*
X42366311Y-71609309D01*
X42381529Y-71593976D01*
X42390143Y-71586694D01*
X42412176Y-71554970D01*
X42418722Y-71546372D01*
X42443432Y-71516701D01*
X42448155Y-71506471D01*
X42458885Y-71487721D01*
X42558234Y-71344685D01*
X42571413Y-71328738D01*
X42580926Y-71319008D01*
X42598708Y-71287387D01*
X42604934Y-71277447D01*
X42625641Y-71247637D01*
X42630252Y-71234813D01*
X42638849Y-71216010D01*
X42638907Y-71215908D01*
X42718541Y-71074308D01*
X42729636Y-71057826D01*
X42739416Y-71045552D01*
X42753080Y-71014191D01*
X42758672Y-71002947D01*
X42775448Y-70973120D01*
X42779338Y-70957913D01*
X42785787Y-70939129D01*
X42846971Y-70798713D01*
X42855992Y-70781744D01*
X42865280Y-70767134D01*
X42875052Y-70736026D01*
X42879668Y-70723676D01*
X42892698Y-70693776D01*
X42895268Y-70676661D01*
X42899593Y-70657919D01*
X42943218Y-70519067D01*
X42950224Y-70501555D01*
X42958278Y-70485161D01*
X42958279Y-70485159D01*
X42964406Y-70454106D01*
X42967755Y-70440971D01*
X42977244Y-70410771D01*
X42978022Y-70392507D01*
X42980255Y-70373794D01*
X43007252Y-70236988D01*
X43012274Y-70218890D01*
X43018543Y-70201523D01*
X43018544Y-70201521D01*
X43021202Y-70170177D01*
X43023102Y-70156665D01*
X43029191Y-70125818D01*
X43027954Y-70107375D01*
X43028119Y-70088622D01*
X43039494Y-69954514D01*
X43042549Y-69935752D01*
X43046766Y-69918381D01*
X43046006Y-69886341D01*
X43046414Y-69872934D01*
X43049123Y-69841010D01*
X43045973Y-69823419D01*
X43044066Y-69804499D01*
X43041132Y-69680698D01*
X43040967Y-69673738D01*
X43042043Y-69654239D01*
X43044256Y-69637823D01*
X43040002Y-69604731D01*
X43039028Y-69591890D01*
X43038238Y-69558550D01*
X43033570Y-69542646D01*
X43029565Y-69523545D01*
X43013238Y-69396537D01*
X43012306Y-69376298D01*
X43012832Y-69361601D01*
X43004937Y-69327280D01*
X43002800Y-69315334D01*
X42998312Y-69280410D01*
X42992727Y-69266809D01*
X42986587Y-69247501D01*
X42958262Y-69124353D01*
X42955298Y-69103430D01*
X42954605Y-69090960D01*
X42954605Y-69090958D01*
X42954605Y-69090955D01*
X42942935Y-69055420D01*
X42939905Y-69044541D01*
X42931525Y-69008107D01*
X42931525Y-69008106D01*
X42925664Y-68997062D01*
X42917388Y-68977628D01*
X42878158Y-68858172D01*
X42873167Y-68836684D01*
X42871763Y-68826661D01*
X42871763Y-68826659D01*
X42856250Y-68790068D01*
X42852603Y-68780355D01*
X42840202Y-68742592D01*
X42834658Y-68734114D01*
X42824278Y-68714658D01*
X42775041Y-68598521D01*
X42768072Y-68576623D01*
X42766416Y-68569050D01*
X42747076Y-68531640D01*
X42743068Y-68523106D01*
X42726633Y-68484339D01*
X42721861Y-68478226D01*
X42709456Y-68458871D01*
X42674154Y-68390585D01*
X42650910Y-68345623D01*
X42642041Y-68323462D01*
X42640504Y-68318200D01*
X42617463Y-68280283D01*
X42613282Y-68272834D01*
X42592911Y-68233429D01*
X42589217Y-68229375D01*
X42574909Y-68210257D01*
X42507582Y-68099464D01*
X42496917Y-68077173D01*
X42495776Y-68074012D01*
X42469221Y-68035876D01*
X42465013Y-68029413D01*
X42440891Y-67989718D01*
X42440888Y-67989715D01*
X42438450Y-67987383D01*
X42422393Y-67968626D01*
X42346696Y-67859921D01*
X42334369Y-67837644D01*
X42333802Y-67836313D01*
X42303986Y-67798243D01*
X42299872Y-67792677D01*
X42272217Y-67752962D01*
X42271104Y-67752023D01*
X42253440Y-67733705D01*
X42231976Y-67706300D01*
X42169740Y-67626836D01*
X42156637Y-67605880D01*
X42156007Y-67604927D01*
X42123193Y-67567145D01*
X42119201Y-67562307D01*
X42088325Y-67522883D01*
X42088322Y-67522881D01*
X42088320Y-67522878D01*
X42087574Y-67522147D01*
X42069418Y-67505227D01*
X41978090Y-67400070D01*
X41968492Y-67386254D01*
X41968489Y-67386257D01*
X41963701Y-67379693D01*
X41963700Y-67379692D01*
X41963699Y-67379690D01*
X41928137Y-67342355D01*
X41924307Y-67338143D01*
X41890520Y-67299240D01*
X41884436Y-67293852D01*
X41884438Y-67293848D01*
X41871588Y-67282985D01*
X41768825Y-67175097D01*
X41753570Y-67155467D01*
X41751994Y-67152954D01*
X41751991Y-67152951D01*
X41717666Y-67121053D01*
X41712289Y-67115741D01*
X41679985Y-67081826D01*
X41679978Y-67081820D01*
X41677449Y-67080277D01*
X41657632Y-67065264D01*
X41325290Y-66756422D01*
X41309519Y-66738660D01*
X41306102Y-66733975D01*
X41271820Y-66706319D01*
X41265267Y-66700643D01*
X41233005Y-66670662D01*
X41233003Y-66670660D01*
X41233002Y-66670660D01*
X41227874Y-66667944D01*
X41208049Y-66654873D01*
X40839991Y-66357954D01*
X40822197Y-66340354D01*
X40820577Y-66338390D01*
X40782064Y-66310943D01*
X40776209Y-66306500D01*
X40739408Y-66276812D01*
X40739407Y-66276811D01*
X40739404Y-66276809D01*
X40737076Y-66275778D01*
X40715333Y-66263384D01*
X40335858Y-65992935D01*
X40323539Y-65984155D01*
X40304087Y-65966953D01*
X40303992Y-65966849D01*
X40262100Y-65940164D01*
X40256779Y-65936576D01*
X40216340Y-65907756D01*
X40216330Y-65907751D01*
X40216201Y-65907703D01*
X40192964Y-65896124D01*
X39784495Y-65635928D01*
X39770649Y-65624849D01*
X39764825Y-65620408D01*
X39764822Y-65620406D01*
X39764821Y-65620405D01*
X39720235Y-65594837D01*
X39715325Y-65591867D01*
X39672010Y-65564275D01*
X39665366Y-65561177D01*
X39649122Y-65554059D01*
X39490498Y-65463098D01*
X39281448Y-65343220D01*
X39244474Y-65310767D01*
X39027197Y-65025366D01*
X39018593Y-65014064D01*
X39014328Y-65008104D01*
X38753713Y-64620202D01*
X38749768Y-64613934D01*
X38518670Y-64221177D01*
X38515096Y-64214664D01*
X38312209Y-63817151D01*
X38309046Y-63810468D01*
X38133162Y-63408318D01*
X38130434Y-63401545D01*
X37980394Y-62994804D01*
X37978112Y-62988020D01*
X37917217Y-62788102D01*
X37852849Y-62576781D01*
X37851011Y-62570076D01*
X37830327Y-62485366D01*
X37749516Y-62154415D01*
X37748108Y-62147884D01*
X37669446Y-61727973D01*
X37668432Y-61721653D01*
X37611708Y-61297700D01*
X37611048Y-61291612D01*
X37575396Y-60863875D01*
X37575050Y-60858060D01*
X37559862Y-60433546D01*
X37559841Y-60425365D01*
X37560552Y-60401897D01*
X37586455Y-59547012D01*
X37587145Y-59537186D01*
X37589300Y-59517652D01*
X37684154Y-58657535D01*
X37685400Y-58648991D01*
X37845904Y-57764651D01*
X37847465Y-57757325D01*
X37881801Y-57617053D01*
X38064014Y-56872646D01*
X38065712Y-56866419D01*
X38330641Y-55985633D01*
X38332323Y-55980463D01*
X38637656Y-55108097D01*
X38639253Y-55103794D01*
X38976906Y-54244136D01*
X38978370Y-54240576D01*
X39338943Y-53400642D01*
X39340696Y-53396747D01*
X40080667Y-51826757D01*
X40091528Y-51808932D01*
X40093793Y-51805005D01*
X40093792Y-51805005D01*
X40093794Y-51805004D01*
X40113234Y-51757995D01*
X40115626Y-51752587D01*
X40137293Y-51706618D01*
X40137293Y-51706613D01*
X40138687Y-51702258D01*
X40142978Y-51687632D01*
X40144156Y-51683227D01*
X40144156Y-51683226D01*
X40144157Y-51683224D01*
X40150765Y-51632803D01*
X40151672Y-51626981D01*
X40160711Y-51576931D01*
X40160710Y-51576922D01*
X40160929Y-51572350D01*
X40161288Y-51557172D01*
X40161286Y-51552557D01*
X40154626Y-51502195D01*
X40153984Y-51496235D01*
X40153751Y-51493436D01*
X40149765Y-51445603D01*
X40149763Y-51445597D01*
X40148804Y-51441184D01*
X40145191Y-51426302D01*
X40144011Y-51421908D01*
X40124528Y-51374948D01*
X40122390Y-51369419D01*
X40105201Y-51321581D01*
X40105200Y-51321579D01*
X40103125Y-51317553D01*
X40095798Y-51304140D01*
X40093514Y-51300188D01*
X40062565Y-51259901D01*
X40059032Y-51255064D01*
X40051385Y-51244048D01*
X40030058Y-51213320D01*
X40030056Y-51213318D01*
X40027054Y-51210014D01*
X40012599Y-51194859D01*
X39888403Y-51033191D01*
X39616342Y-50679043D01*
X39613305Y-50674914D01*
X39220386Y-50116658D01*
X39217142Y-50111811D01*
X38862566Y-49554035D01*
X38859222Y-49548456D01*
X38772391Y-49394594D01*
X38544031Y-48989948D01*
X38540703Y-48983630D01*
X38265844Y-48423102D01*
X38262630Y-48415988D01*
X38028933Y-47851970D01*
X38025979Y-47844095D01*
X37944601Y-47602550D01*
X37834217Y-47274906D01*
X37831688Y-47266404D01*
X37682623Y-46690026D01*
X37680645Y-46680993D01*
X37575175Y-46095278D01*
X37573854Y-46085897D01*
X37513034Y-45488355D01*
X37512436Y-45478852D01*
X37497603Y-44866985D01*
X37497734Y-44857557D01*
X37530495Y-44228873D01*
X37531312Y-44219730D01*
X37533728Y-44200691D01*
X37613523Y-43571818D01*
X37614933Y-43563171D01*
X37748634Y-42893842D01*
X37750528Y-42885778D01*
X37753369Y-42875275D01*
X37937840Y-42193159D01*
X37940091Y-42185762D01*
X38062703Y-41823766D01*
X56274500Y-41823766D01*
X56274500Y-76286233D01*
X56308143Y-76455366D01*
X56308146Y-76455378D01*
X56374138Y-76614698D01*
X56374145Y-76614711D01*
X56469954Y-76758098D01*
X56469957Y-76758102D01*
X57861897Y-78150042D01*
X57861901Y-78150045D01*
X58005288Y-78245854D01*
X58005301Y-78245861D01*
X58164621Y-78311853D01*
X58164626Y-78311855D01*
X58309454Y-78340663D01*
X58333766Y-78345499D01*
X58333769Y-78345500D01*
X58333771Y-78345500D01*
X58506231Y-78345500D01*
X58506232Y-78345499D01*
X58675374Y-78311855D01*
X58834705Y-78245858D01*
X58978099Y-78150045D01*
X59100045Y-78028099D01*
X59195858Y-77884705D01*
X59261855Y-77725374D01*
X59295500Y-77556229D01*
X59295500Y-77383771D01*
X59295500Y-77383768D01*
X59295499Y-77383766D01*
X59285161Y-77331793D01*
X59261855Y-77214626D01*
X59222530Y-77119686D01*
X59195861Y-77055301D01*
X59195854Y-77055288D01*
X59100045Y-76911901D01*
X59100042Y-76911897D01*
X58061819Y-75873674D01*
X58028334Y-75812351D01*
X58025500Y-75785993D01*
X58025500Y-74151500D01*
X58033389Y-74124635D01*
X73629500Y-74124635D01*
X73629500Y-75820370D01*
X73629501Y-75820376D01*
X73635908Y-75879983D01*
X73686202Y-76014828D01*
X73686206Y-76014835D01*
X73772452Y-76130044D01*
X73772455Y-76130047D01*
X73887664Y-76216293D01*
X73887671Y-76216297D01*
X74022517Y-76266591D01*
X74022516Y-76266591D01*
X74029444Y-76267335D01*
X74082127Y-76273000D01*
X75777872Y-76272999D01*
X75837483Y-76266591D01*
X75972331Y-76216296D01*
X76087546Y-76130046D01*
X76173796Y-76014831D01*
X76224091Y-75879983D01*
X76230500Y-75820373D01*
X76230499Y-74124628D01*
X76224091Y-74065017D01*
X76206071Y-74016704D01*
X76173797Y-73930171D01*
X76173793Y-73930164D01*
X76087547Y-73814955D01*
X76087544Y-73814952D01*
X75972335Y-73728706D01*
X75972328Y-73728702D01*
X75837482Y-73678408D01*
X75837483Y-73678408D01*
X75777883Y-73672001D01*
X75777881Y-73672000D01*
X75777873Y-73672000D01*
X75777864Y-73672000D01*
X74082129Y-73672000D01*
X74082123Y-73672001D01*
X74022516Y-73678408D01*
X73887671Y-73728702D01*
X73887664Y-73728706D01*
X73772455Y-73814952D01*
X73772452Y-73814955D01*
X73686206Y-73930164D01*
X73686202Y-73930171D01*
X73635908Y-74065017D01*
X73633818Y-74084461D01*
X73629501Y-74124623D01*
X73629500Y-74124635D01*
X58033389Y-74124635D01*
X58045185Y-74084461D01*
X58097989Y-74038706D01*
X58149500Y-74027500D01*
X58252231Y-74027500D01*
X58252232Y-74027499D01*
X58421374Y-73993855D01*
X58580705Y-73927858D01*
X58724099Y-73832045D01*
X58846045Y-73710099D01*
X58941858Y-73566705D01*
X59007855Y-73407374D01*
X59041500Y-73238229D01*
X59041500Y-40553771D01*
X59041500Y-40553768D01*
X59041499Y-40553766D01*
X59007856Y-40384633D01*
X59007855Y-40384626D01*
X58974459Y-40304001D01*
X58941861Y-40225301D01*
X58941854Y-40225288D01*
X58846045Y-40081901D01*
X58846042Y-40081897D01*
X58724102Y-39959957D01*
X58724098Y-39959954D01*
X58580711Y-39864145D01*
X58580698Y-39864138D01*
X58421378Y-39798146D01*
X58421366Y-39798143D01*
X58252232Y-39764500D01*
X58252229Y-39764500D01*
X58079771Y-39764500D01*
X58079768Y-39764500D01*
X57910633Y-39798143D01*
X57910621Y-39798146D01*
X57751301Y-39864138D01*
X57751288Y-39864145D01*
X57607901Y-39959954D01*
X57607897Y-39959957D01*
X57485957Y-40081897D01*
X57485954Y-40081901D01*
X57390145Y-40225288D01*
X57390138Y-40225301D01*
X57324146Y-40384621D01*
X57324143Y-40384633D01*
X57290500Y-40553766D01*
X57290500Y-40910500D01*
X57270815Y-40977539D01*
X57218011Y-41023294D01*
X57166500Y-41034500D01*
X57063768Y-41034500D01*
X56894633Y-41068143D01*
X56894621Y-41068146D01*
X56735301Y-41134138D01*
X56735288Y-41134145D01*
X56591901Y-41229954D01*
X56591897Y-41229957D01*
X56469957Y-41351897D01*
X56469954Y-41351901D01*
X56374145Y-41495288D01*
X56374138Y-41495301D01*
X56308146Y-41654621D01*
X56308143Y-41654633D01*
X56274500Y-41823766D01*
X38062703Y-41823766D01*
X38166252Y-41518051D01*
X38172636Y-41504468D01*
X38172280Y-41504309D01*
X38175600Y-41496890D01*
X38175605Y-41496884D01*
X38191207Y-41444628D01*
X38192560Y-41440380D01*
X38210065Y-41388703D01*
X38210065Y-41388700D01*
X38211645Y-41380729D01*
X38212028Y-41380804D01*
X38214680Y-41366017D01*
X38321340Y-41008811D01*
X38323540Y-41002142D01*
X38464214Y-40613025D01*
X38466821Y-40606411D01*
X38625516Y-40235735D01*
X38628520Y-40229248D01*
X38804519Y-39876373D01*
X38807902Y-39870058D01*
X39000567Y-39534301D01*
X39004330Y-39528165D01*
X39179353Y-39260456D01*
X39213061Y-39208897D01*
X39217129Y-39203049D01*
X39441403Y-38899624D01*
X39445696Y-38894146D01*
X39685049Y-38605955D01*
X39689540Y-38600843D01*
X39943421Y-38327454D01*
X39948046Y-38322734D01*
X40215997Y-38063667D01*
X40220710Y-38059343D01*
X40502186Y-37814248D01*
X40506927Y-37810325D01*
X40795713Y-37583329D01*
X40802814Y-37578147D01*
X41434829Y-37150598D01*
X41444131Y-37144886D01*
X42043926Y-36812125D01*
X42114453Y-36772997D01*
X42123303Y-36768540D01*
X42188828Y-36738766D01*
X75324500Y-36738766D01*
X75324500Y-41996233D01*
X75358143Y-42165366D01*
X75358146Y-42165378D01*
X75424138Y-42324698D01*
X75424145Y-42324711D01*
X75519954Y-42468098D01*
X75519957Y-42468102D01*
X75641897Y-42590042D01*
X75641901Y-42590045D01*
X75785288Y-42685854D01*
X75785301Y-42685861D01*
X75880357Y-42725234D01*
X75944626Y-42751855D01*
X76113766Y-42785499D01*
X76113769Y-42785500D01*
X76113771Y-42785500D01*
X76286231Y-42785500D01*
X76372801Y-42768279D01*
X76446309Y-42753658D01*
X76515900Y-42759885D01*
X76571077Y-42802748D01*
X76594322Y-42868637D01*
X76594500Y-42875275D01*
X76594500Y-47330233D01*
X76628143Y-47499366D01*
X76628146Y-47499378D01*
X76694138Y-47658698D01*
X76694145Y-47658711D01*
X76789954Y-47802098D01*
X76789957Y-47802102D01*
X76919897Y-47932042D01*
X76919905Y-47932048D01*
X77063293Y-48027857D01*
X77063303Y-48027861D01*
X77222626Y-48093855D01*
X77391766Y-48127499D01*
X77391769Y-48127500D01*
X77391771Y-48127500D01*
X77564231Y-48127500D01*
X77564232Y-48127499D01*
X77733374Y-48093855D01*
X77892705Y-48027858D01*
X78036099Y-47932045D01*
X78158045Y-47810099D01*
X78253858Y-47666705D01*
X78319855Y-47507374D01*
X78353500Y-47338229D01*
X78353500Y-47165771D01*
X78347883Y-47137532D01*
X78345500Y-47113340D01*
X78345500Y-45878766D01*
X89294500Y-45878766D01*
X89294500Y-62316233D01*
X89328143Y-62485366D01*
X89328146Y-62485378D01*
X89394138Y-62644698D01*
X89394145Y-62644711D01*
X89489954Y-62788098D01*
X89489957Y-62788102D01*
X89611897Y-62910042D01*
X89611901Y-62910045D01*
X89755288Y-63005854D01*
X89755301Y-63005861D01*
X89914621Y-63071853D01*
X89914626Y-63071855D01*
X90083766Y-63105499D01*
X90083769Y-63105500D01*
X90083771Y-63105500D01*
X90256231Y-63105500D01*
X90256232Y-63105499D01*
X90425374Y-63071855D01*
X90584705Y-63005858D01*
X90728099Y-62910045D01*
X90850045Y-62788099D01*
X90945858Y-62644705D01*
X91011855Y-62485374D01*
X91045500Y-62316229D01*
X91045500Y-60873766D01*
X93104500Y-60873766D01*
X93104500Y-71686233D01*
X93138143Y-71855366D01*
X93138146Y-71855378D01*
X93204138Y-72014698D01*
X93204145Y-72014711D01*
X93299954Y-72158098D01*
X93299957Y-72158102D01*
X93421897Y-72280042D01*
X93421901Y-72280045D01*
X93565288Y-72375854D01*
X93565301Y-72375861D01*
X93724621Y-72441853D01*
X93724626Y-72441855D01*
X93893766Y-72475499D01*
X93893769Y-72475500D01*
X93893771Y-72475500D01*
X94066231Y-72475500D01*
X94066232Y-72475499D01*
X94235374Y-72441855D01*
X94394705Y-72375858D01*
X94538099Y-72280045D01*
X94660045Y-72158099D01*
X94755858Y-72014705D01*
X94821855Y-71855374D01*
X94855500Y-71686229D01*
X94855500Y-71662135D01*
X124999499Y-71662135D01*
X124999499Y-74757870D01*
X124999500Y-74757876D01*
X125005907Y-74817483D01*
X125056201Y-74952328D01*
X125056205Y-74952335D01*
X125142451Y-75067544D01*
X125142454Y-75067547D01*
X125257663Y-75153793D01*
X125257670Y-75153797D01*
X125392516Y-75204091D01*
X125392515Y-75204091D01*
X125399443Y-75204835D01*
X125452126Y-75210500D01*
X128547871Y-75210499D01*
X128607482Y-75204091D01*
X128742330Y-75153796D01*
X128857545Y-75067546D01*
X128943795Y-74952331D01*
X128994090Y-74817483D01*
X129000499Y-74757873D01*
X129000498Y-71662128D01*
X128994090Y-71602517D01*
X128993515Y-71600976D01*
X128943796Y-71467671D01*
X128943792Y-71467664D01*
X128857546Y-71352455D01*
X128857543Y-71352452D01*
X128742334Y-71266206D01*
X128742327Y-71266202D01*
X128607481Y-71215908D01*
X128607482Y-71215908D01*
X128547882Y-71209501D01*
X128547880Y-71209500D01*
X128547872Y-71209500D01*
X128547863Y-71209500D01*
X125452128Y-71209500D01*
X125452122Y-71209501D01*
X125392515Y-71215908D01*
X125257670Y-71266202D01*
X125257663Y-71266206D01*
X125142454Y-71352452D01*
X125142451Y-71352455D01*
X125056205Y-71467664D01*
X125056201Y-71467671D01*
X125005907Y-71602517D01*
X124999500Y-71662116D01*
X124999500Y-71662123D01*
X124999499Y-71662135D01*
X94855500Y-71662135D01*
X94855500Y-68239771D01*
X94855500Y-64683771D01*
X94855500Y-60873771D01*
X94855500Y-60873768D01*
X94855499Y-60873766D01*
X94821856Y-60704633D01*
X94821855Y-60704626D01*
X94821853Y-60704621D01*
X94755861Y-60545301D01*
X94755854Y-60545288D01*
X94660045Y-60401901D01*
X94660042Y-60401897D01*
X94538102Y-60279957D01*
X94538098Y-60279954D01*
X94394711Y-60184145D01*
X94394698Y-60184138D01*
X94235378Y-60118146D01*
X94235366Y-60118143D01*
X94066232Y-60084500D01*
X94066229Y-60084500D01*
X93893771Y-60084500D01*
X93893768Y-60084500D01*
X93724633Y-60118143D01*
X93724621Y-60118146D01*
X93565301Y-60184138D01*
X93565288Y-60184145D01*
X93421901Y-60279954D01*
X93421897Y-60279957D01*
X93299957Y-60401897D01*
X93299954Y-60401901D01*
X93204145Y-60545288D01*
X93204138Y-60545301D01*
X93138146Y-60704621D01*
X93138143Y-60704633D01*
X93104500Y-60873766D01*
X91045500Y-60873766D01*
X91045500Y-45878771D01*
X91045500Y-45878768D01*
X91045499Y-45878766D01*
X91031071Y-45806231D01*
X91011855Y-45709626D01*
X90971347Y-45611830D01*
X90945861Y-45550301D01*
X90945854Y-45550288D01*
X90850045Y-45406901D01*
X90850042Y-45406897D01*
X90728102Y-45284957D01*
X90728098Y-45284954D01*
X90584711Y-45189145D01*
X90584698Y-45189138D01*
X90425378Y-45123146D01*
X90425366Y-45123143D01*
X90256232Y-45089500D01*
X90256229Y-45089500D01*
X90083771Y-45089500D01*
X90083768Y-45089500D01*
X89914633Y-45123143D01*
X89914621Y-45123146D01*
X89755301Y-45189138D01*
X89755288Y-45189145D01*
X89611901Y-45284954D01*
X89611897Y-45284957D01*
X89489957Y-45406897D01*
X89489954Y-45406901D01*
X89394145Y-45550288D01*
X89394138Y-45550301D01*
X89328146Y-45709621D01*
X89328143Y-45709633D01*
X89294500Y-45878766D01*
X78345500Y-45878766D01*
X78345500Y-34457768D01*
X78345499Y-34457766D01*
X78332640Y-34393120D01*
X78311855Y-34288626D01*
X78280026Y-34211783D01*
X78276705Y-34203766D01*
X100724500Y-34203766D01*
X100724500Y-64856233D01*
X100758143Y-65025366D01*
X100758146Y-65025378D01*
X100824138Y-65184698D01*
X100824145Y-65184711D01*
X100919954Y-65328098D01*
X100919957Y-65328102D01*
X101176897Y-65585042D01*
X101176901Y-65585045D01*
X101320288Y-65680854D01*
X101320301Y-65680861D01*
X101479621Y-65746853D01*
X101479626Y-65746855D01*
X101648766Y-65780499D01*
X101648769Y-65780500D01*
X101648771Y-65780500D01*
X101821231Y-65780500D01*
X101821232Y-65780499D01*
X101990374Y-65746855D01*
X102149705Y-65680858D01*
X102293099Y-65585045D01*
X102415045Y-65463099D01*
X102510858Y-65319705D01*
X102576855Y-65160374D01*
X102610500Y-64991229D01*
X102610500Y-64818771D01*
X102610500Y-64818768D01*
X102610499Y-64818766D01*
X102598086Y-64756360D01*
X102576855Y-64649626D01*
X102562071Y-64613934D01*
X102510861Y-64490301D01*
X102510854Y-64490288D01*
X102496398Y-64468653D01*
X102475520Y-64401975D01*
X102475500Y-64399762D01*
X102475500Y-52719998D01*
X124994890Y-52719998D01*
X124994890Y-52720001D01*
X125015299Y-53005362D01*
X125076108Y-53284895D01*
X125176090Y-53552958D01*
X125313190Y-53804038D01*
X125313195Y-53804046D01*
X125419881Y-53946561D01*
X125419882Y-53946562D01*
X126322420Y-53044024D01*
X126335358Y-53075258D01*
X126417436Y-53198097D01*
X126521902Y-53302563D01*
X126644741Y-53384641D01*
X126675973Y-53397578D01*
X125773435Y-54300115D01*
X125915959Y-54406807D01*
X125915960Y-54406808D01*
X126167041Y-54543908D01*
X126167040Y-54543908D01*
X126435103Y-54643890D01*
X126714636Y-54704699D01*
X126999998Y-54725109D01*
X127000000Y-54725109D01*
X127285361Y-54704699D01*
X127564894Y-54643890D01*
X127832957Y-54543908D01*
X128084046Y-54406803D01*
X128226560Y-54300116D01*
X128226561Y-54300115D01*
X127324024Y-53397577D01*
X127355257Y-53384641D01*
X127478096Y-53302563D01*
X127582562Y-53198097D01*
X127664640Y-53075258D01*
X127677577Y-53044025D01*
X128580114Y-53946562D01*
X128580115Y-53946561D01*
X128686802Y-53804047D01*
X128823907Y-53552958D01*
X128923889Y-53284895D01*
X128984698Y-53005362D01*
X129005108Y-52720001D01*
X129005108Y-52719998D01*
X128984698Y-52434637D01*
X128923889Y-52155104D01*
X128823907Y-51887041D01*
X128686807Y-51635961D01*
X128686806Y-51635960D01*
X128580114Y-51493436D01*
X127677576Y-52395973D01*
X127664640Y-52364742D01*
X127582562Y-52241903D01*
X127478096Y-52137437D01*
X127355257Y-52055359D01*
X127324023Y-52042421D01*
X128226561Y-51139883D01*
X128226560Y-51139882D01*
X128084045Y-51033196D01*
X128084037Y-51033191D01*
X127832956Y-50896091D01*
X127832957Y-50896091D01*
X127564894Y-50796109D01*
X127285361Y-50735300D01*
X127000000Y-50714891D01*
X126999998Y-50714891D01*
X126714636Y-50735300D01*
X126435103Y-50796109D01*
X126167040Y-50896091D01*
X125915960Y-51033191D01*
X125915952Y-51033196D01*
X125773436Y-51139882D01*
X125773435Y-51139883D01*
X126675974Y-52042421D01*
X126644741Y-52055359D01*
X126521902Y-52137437D01*
X126417436Y-52241903D01*
X126335358Y-52364742D01*
X126322420Y-52395974D01*
X125419882Y-51493436D01*
X125419881Y-51493437D01*
X125313195Y-51635953D01*
X125313190Y-51635961D01*
X125176090Y-51887041D01*
X125076108Y-52155104D01*
X125015299Y-52434637D01*
X124994890Y-52719998D01*
X102475500Y-52719998D01*
X102475500Y-34704006D01*
X102495185Y-34636967D01*
X102511819Y-34616325D01*
X103550042Y-33578102D01*
X103550045Y-33578099D01*
X103645858Y-33434705D01*
X103711855Y-33275374D01*
X103745500Y-33106229D01*
X103745500Y-32933771D01*
X103745500Y-32933768D01*
X103745499Y-32933766D01*
X103743028Y-32921342D01*
X103711855Y-32764626D01*
X103711853Y-32764621D01*
X103645861Y-32605301D01*
X103645854Y-32605288D01*
X103550045Y-32461901D01*
X103550042Y-32461897D01*
X103428102Y-32339957D01*
X103428098Y-32339954D01*
X103284711Y-32244145D01*
X103284698Y-32244138D01*
X103125378Y-32178146D01*
X103125366Y-32178143D01*
X102956232Y-32144500D01*
X102956229Y-32144500D01*
X102783771Y-32144500D01*
X102783768Y-32144500D01*
X102614633Y-32178143D01*
X102614621Y-32178146D01*
X102455301Y-32244138D01*
X102455288Y-32244145D01*
X102311901Y-32339954D01*
X102311897Y-32339957D01*
X101311550Y-33340306D01*
X101041901Y-33609955D01*
X100983356Y-33668500D01*
X100919953Y-33731902D01*
X100824145Y-33875288D01*
X100824138Y-33875301D01*
X100758146Y-34034621D01*
X100758143Y-34034633D01*
X100724500Y-34203766D01*
X78276705Y-34203766D01*
X78245861Y-34129301D01*
X78245854Y-34129288D01*
X78150045Y-33985901D01*
X78150042Y-33985897D01*
X78028102Y-33863957D01*
X78028098Y-33863954D01*
X77884711Y-33768145D01*
X77884698Y-33768138D01*
X77725378Y-33702146D01*
X77725366Y-33702143D01*
X77556232Y-33668500D01*
X77556229Y-33668500D01*
X77383771Y-33668500D01*
X77383768Y-33668500D01*
X77214633Y-33702143D01*
X77214621Y-33702146D01*
X77055301Y-33768138D01*
X77055288Y-33768145D01*
X76911901Y-33863954D01*
X76911897Y-33863957D01*
X76789957Y-33985897D01*
X76789954Y-33985901D01*
X76694145Y-34129288D01*
X76694138Y-34129301D01*
X76628146Y-34288621D01*
X76628143Y-34288633D01*
X76594500Y-34457766D01*
X76594500Y-35859724D01*
X76574815Y-35926763D01*
X76522011Y-35972518D01*
X76452853Y-35982462D01*
X76446309Y-35981341D01*
X76286233Y-35949500D01*
X76286229Y-35949500D01*
X76113771Y-35949500D01*
X76113768Y-35949500D01*
X75944633Y-35983143D01*
X75944621Y-35983146D01*
X75785301Y-36049138D01*
X75785288Y-36049145D01*
X75641901Y-36144954D01*
X75641897Y-36144957D01*
X75519957Y-36266897D01*
X75519954Y-36266901D01*
X75424145Y-36410288D01*
X75424138Y-36410301D01*
X75358146Y-36569621D01*
X75358143Y-36569633D01*
X75324500Y-36738766D01*
X42188828Y-36738766D01*
X42833005Y-36446059D01*
X42841242Y-36442669D01*
X43584513Y-36167742D01*
X43592114Y-36165209D01*
X44362796Y-35935910D01*
X44369794Y-35934050D01*
X45161504Y-35748310D01*
X45167900Y-35746987D01*
X45974213Y-35602575D01*
X45980101Y-35601667D01*
X46794447Y-35496226D01*
X46799862Y-35495647D01*
X47615611Y-35426699D01*
X47620690Y-35426375D01*
X48372437Y-35393878D01*
X48387238Y-35394918D01*
X48387261Y-35394488D01*
X48395374Y-35394911D01*
X48395382Y-35394913D01*
X48436552Y-35391665D01*
X48446301Y-35391282D01*
X48487617Y-35391282D01*
X48495673Y-35390221D01*
X48495687Y-35390334D01*
X48501178Y-35389490D01*
X48501159Y-35389377D01*
X48509163Y-35387969D01*
X48509167Y-35387969D01*
X48509169Y-35387968D01*
X48517176Y-35386560D01*
X48517250Y-35386983D01*
X48531813Y-35384152D01*
X49420177Y-35314088D01*
X49441648Y-35314260D01*
X49453201Y-35315359D01*
X49490975Y-35308987D01*
X49501816Y-35307649D01*
X49539984Y-35304640D01*
X49550917Y-35300765D01*
X49571703Y-35295373D01*
X50453742Y-35146624D01*
X50476500Y-35144917D01*
X50484660Y-35145059D01*
X50525143Y-35134958D01*
X50534503Y-35133004D01*
X50575639Y-35126068D01*
X50583058Y-35122675D01*
X50604594Y-35115135D01*
X51467733Y-34899788D01*
X51491904Y-34896239D01*
X51495974Y-34896047D01*
X51539570Y-34882129D01*
X51547226Y-34879955D01*
X51591633Y-34868877D01*
X51595202Y-34866897D01*
X51617624Y-34857213D01*
X52468797Y-34585502D01*
X52492967Y-34580517D01*
X52494103Y-34580253D01*
X52494104Y-34580252D01*
X52494109Y-34580252D01*
X52540977Y-34562627D01*
X52546858Y-34560584D01*
X52594597Y-34545346D01*
X52594605Y-34545340D01*
X52595650Y-34544850D01*
X52617722Y-34533768D01*
X53464169Y-34215475D01*
X53478810Y-34211783D01*
X53478713Y-34211423D01*
X53486551Y-34209290D01*
X53486557Y-34209290D01*
X53536772Y-34188263D01*
X53540957Y-34186601D01*
X53591868Y-34167458D01*
X53591876Y-34167451D01*
X53599039Y-34163627D01*
X53599214Y-34163955D01*
X53612396Y-34156598D01*
X54463122Y-33800386D01*
X54476234Y-33796616D01*
X54476029Y-33795941D01*
X54483798Y-33793581D01*
X54483804Y-33793581D01*
X54535539Y-33770120D01*
X54538768Y-33768712D01*
X54591207Y-33746757D01*
X54591211Y-33746754D01*
X54598232Y-33742665D01*
X54598587Y-33743274D01*
X54610268Y-33736236D01*
X56565416Y-32849688D01*
X56565492Y-32849677D01*
X56565484Y-32849658D01*
X57490064Y-32431100D01*
X58702450Y-31882252D01*
X58705398Y-31880964D01*
X59220498Y-31663766D01*
X119774500Y-31663766D01*
X119774500Y-45806233D01*
X119808143Y-45975366D01*
X119808146Y-45975378D01*
X119874138Y-46134698D01*
X119874145Y-46134711D01*
X119969954Y-46278098D01*
X119969957Y-46278102D01*
X120091897Y-46400042D01*
X120091901Y-46400045D01*
X120235288Y-46495854D01*
X120235301Y-46495861D01*
X120394621Y-46561853D01*
X120394626Y-46561855D01*
X120563766Y-46595499D01*
X120563769Y-46595500D01*
X120563771Y-46595500D01*
X120736231Y-46595500D01*
X120736232Y-46595499D01*
X120905374Y-46561855D01*
X121064705Y-46495858D01*
X121208099Y-46400045D01*
X121330045Y-46278099D01*
X121425858Y-46134705D01*
X121491855Y-45975374D01*
X121525500Y-45806229D01*
X121525500Y-31663771D01*
X121525500Y-31663768D01*
X121525499Y-31663766D01*
X121491856Y-31494633D01*
X121491855Y-31494626D01*
X121464884Y-31429511D01*
X121425861Y-31335301D01*
X121425854Y-31335288D01*
X121330045Y-31191901D01*
X121330042Y-31191897D01*
X121208102Y-31069957D01*
X121208098Y-31069954D01*
X121064711Y-30974145D01*
X121064698Y-30974138D01*
X120905378Y-30908146D01*
X120905366Y-30908143D01*
X120736232Y-30874500D01*
X120736229Y-30874500D01*
X120563771Y-30874500D01*
X120563768Y-30874500D01*
X120394633Y-30908143D01*
X120394621Y-30908146D01*
X120235301Y-30974138D01*
X120235288Y-30974145D01*
X120091901Y-31069954D01*
X120091897Y-31069957D01*
X119969957Y-31191897D01*
X119969954Y-31191901D01*
X119874145Y-31335288D01*
X119874138Y-31335301D01*
X119808146Y-31494621D01*
X119808143Y-31494633D01*
X119774500Y-31663766D01*
X59220498Y-31663766D01*
X59826345Y-31408303D01*
X59829611Y-31406981D01*
X61000213Y-30953140D01*
X61004369Y-30951616D01*
X62230747Y-30527200D01*
X62235756Y-30525586D01*
X63525825Y-30140453D01*
X63531553Y-30138892D01*
X64893387Y-29802927D01*
X64899642Y-29801557D01*
X66299788Y-29532738D01*
X66323168Y-29530515D01*
X122413795Y-29530515D01*
X122422150Y-29530797D01*
G37*
%TD.AperFunction*%
%TD*%
M02*
